<?xml version="1.0" encoding="UTF-8" standalone="no"?>
<!-- Created with Inkscape (http://www.inkscape.org/) -->

<svg
   width="71.70208mm"
   height="7.4083328mm"
   viewBox="0 0 71.70208 7.408333"
   version="1.1"
   id="svg1"
   xml:space="preserve"
   inkscape:version="1.2.2 (b0a8486541, 2022-12-01)"
   sodipodi:docname="logo.svg"
   inkscape:export-filename="logo.png"
   inkscape:export-xdpi="96"
   inkscape:export-ydpi="96"
   xmlns:inkscape="http://www.inkscape.org/namespaces/inkscape"
   xmlns:sodipodi="http://sodipodi.sourceforge.net/DTD/sodipodi-0.dtd"
   xmlns="http://www.w3.org/2000/svg"
   xmlns:svg="http://www.w3.org/2000/svg"><sodipodi:namedview
     id="namedview1"
     pagecolor="#ffffff"
     bordercolor="#000000"
     borderopacity="0.25"
     inkscape:showpageshadow="2"
     inkscape:pageopacity="0.0"
     inkscape:pagecheckerboard="0"
     inkscape:deskcolor="#d1d1d1"
     inkscape:document-units="mm"
     inkscape:zoom="14.021158"
     inkscape:cx="26.210389"
     inkscape:cy="25.675483"
     inkscape:window-width="1920"
     inkscape:window-height="1008"
     inkscape:window-x="0"
     inkscape:window-y="0"
     inkscape:window-maximized="1"
     inkscape:current-layer="g18"
     showgrid="true"
     showguides="false"><inkscape:grid
       id="grid1"
       units="px"
       originx="-1.0583333"
       originy="-1.0583333"
       spacingx="0.13229166"
       spacingy="0.13229166"
       empcolor="#0099e5"
       empopacity="0.30196078"
       color="#0099e5"
       opacity="0.14901961"
       empspacing="2"
       enabled="true"
       visible="true" /><sodipodi:guide
       position="10.715624,-34.185026"
       orientation="0,-1"
       id="guide18"
       inkscape:locked="false" /><sodipodi:guide
       position="10.980207,-30.745442"
       orientation="0,-1"
       id="guide19"
       inkscape:locked="false" /><sodipodi:guide
       position="10.980207,-32.200651"
       orientation="1,0"
       id="guide20"
       inkscape:locked="false" /><sodipodi:guide
       position="9.5249991,-32.673594"
       orientation="1,0"
       id="guide21"
       inkscape:locked="false" /><sodipodi:guide
       position="12.435415,-33.391276"
       orientation="1,0"
       id="guide22"
       inkscape:locked="false" /><sodipodi:guide
       position="8.0697909,-31.671484"
       orientation="0.85752666,0.51443953"
       id="guide34"
       inkscape:locked="false"
       inkscape:label=""
       inkscape:color="rgb(0,134,229)" /><sodipodi:guide
       position="8.3562459,-33.713362"
       orientation="0.85752666,0.51443953"
       id="guide35"
       inkscape:label=""
       inkscape:locked="false"
       inkscape:color="rgb(0,134,229)" /></sodipodi:namedview><defs
     id="defs1" /><g
     inkscape:label="Namco Classic Collection"
     inkscape:groupmode="layer"
     id="layer1"
     style="fill:#ffffff"
     transform="translate(-1.0583333,-1.0583333)"><g
       id="g18"
       inkscape:label="Dark"
       transform="translate(1.3229165,-39.146706)"><path
         id="path2191"
         style="color:#000000;display:inline;fill:#240038;stroke-linecap:round;stroke-linejoin:round;-inkscape-stroke:none;paint-order:stroke markers fill"
         d="m 8.4666668,43.656508 a 0.26460996,0.26460996 0 0 0 -0.2656169,0.26355 v 0.505912 2.935222 a 0.26460996,0.26460996 0 0 0 0.2656169,0.264066 H 9.2599 a 0.26460996,0.26460996 0 0 0 0.2656169,-0.264066 v -0.656291 l 0.3028239,0.503845 0.1715657,0.287321 a 0.26460996,0.26460996 0 0 0 0.2268595,0.129191 H 10.8474 a 0.26460996,0.26460996 0 0 0 0.08992,-0.08837 0.26460996,0.26460996 0 0 0 0.176217,0.08837 h 0.827856 a 0.26460996,0.26460996 0 0 0 0.253731,-0.187585 l 0.185519,-0.605648 h 0.373104 l 0.187585,0.605648 a 0.26460996,0.26460996 0 0 0 0.252181,0.187585 h 0.829924 a 0.26460996,0.26460996 0 0 0 0.179834,-0.08423 0.26460996,0.26460996 0 0 0 0.08371,0.08423 h 0.265617 0.529167 a 0.26460996,0.26460996 0 0 0 0.264066,-0.264066 v -0.935344 l 0.04651,0.06615 a 0.26460996,0.26460996 0 0 0 0.435633,0 l 0.04702,-0.06615 v 0.935344 a 0.26460996,0.26460996 0 0 0 0.26355,0.264066 h 0.529167 0.266133 a 0.26460996,0.26460996 0 0 0 0.26355,-0.264066 v -0.898137 c 0.07173,0.180689 0.06536,0.408357 0.177767,0.554488 0.279055,0.362772 0.687927,0.607715 1.146183,0.607715 0.742917,-0.0015 1.324679,-0.638769 1.507919,-1.46296 0.212323,0.801285 0.744499,1.46296 1.535306,1.46296 0.972677,0 1.718758,-0.91357 1.718758,-1.984375 0,-1.070805 -0.746081,-1.984375 -1.718758,-1.984375 -0.790202,0 -1.32249,0.660525 -1.535306,1.460893 -0.184187,-0.823933 -0.76484,-1.46093 -1.507919,-1.460893 -0.458256,0 -0.867128,0.244427 -1.146183,0.607198 -0.112409,0.146132 -0.106035,0.3738 -0.177767,0.554488 v -0.898136 a 0.26460996,0.26460996 0 0 0 -0.26355,-0.26355 H 16.33027 A 0.26460996,0.26460996 0 0 0 16.113228,43.76968 L 15.61145,44.486432 15.109155,43.76968 a 0.26460996,0.26460996 0 0 0 -0.218591,-0.113172 h -0.603581 a 0.26460996,0.26460996 0 0 0 -0.263549,0.26355 v 2.544548 l -0.80667,-2.621029 A 0.26460996,0.26460996 0 0 0 12.9651,43.656508 H 12.568225 12.1698 11.377083 a 0.26460996,0.26460996 0 0 0 -0.263549,0.26355 0.26460996,0.26460996 0 0 0 -0.266134,-0.26355 h -0.792716 a 0.26460996,0.26460996 0 0 0 -0.2656173,0.26355 v 0.630969 L 9.4883099,44.048732 9.3281129,43.785183 A 0.26460996,0.26460996 0 0 0 9.1017702,43.656508 Z m 18.5218672,0 c -0.458257,0 -0.867646,0.244427 -1.1467,0.607198 -0.279055,0.362772 -0.441317,0.847275 -0.441317,1.377177 0,0.529903 0.162262,1.013889 0.441317,1.37666 0.279054,0.362772 0.688443,0.607715 1.1467,0.607715 0.611619,-0.0012 1.056633,-0.480265 1.321883,-1.089856 v 0.82579 a 0.26460996,0.26460996 0 0 0 0.26355,0.264066 h 0.529683 0.265617 1.321883 a 0.26460996,0.26460996 0 0 0 0.08992,-0.08837 0.26460996,0.26460996 0 0 0 0.176217,0.08837 h 0.827856 a 0.26460996,0.26460996 0 0 0 0.253731,-0.187585 l 0.185519,-0.605648 h 0.373104 l 0.187585,0.605648 a 0.26460996,0.26460996 0 0 0 0.252181,0.187585 h 0.829924 a 0.26460996,0.26460996 0 0 0 0.252181,-0.342098 l -0.07803,-0.253731 c 0.104793,0.169752 0.250216,0.307474 0.413928,0.398425 0.29507,0.163909 0.602618,0.195337 0.867131,0.195337 0.264513,0 0.571931,-0.03133 0.86713,-0.195337 0.25487,-0.141594 0.373712,-0.457793 0.45682,-0.771529 0.08279,0.312559 0.200488,0.627916 0.455269,0.769462 0.295071,0.163908 0.600551,0.197404 0.865064,0.197404 0.264513,0 0.571932,-0.03341 0.86713,-0.197404 0.180333,-0.100184 0.216909,-0.351538 0.324528,-0.545186 v 0.480591 a 0.26460996,0.26460996 0 0 0 0.265617,0.264066 h 0.792717 a 0.26460996,0.26460996 0 0 0 0.26355,-0.264066 v -0.898137 c 0.07173,0.180689 0.06536,0.408357 0.177767,0.554488 0.279055,0.362772 0.688443,0.607715 1.1467,0.607715 0.769617,-0.0015 1.386752,-0.671344 1.545125,-1.539441 A 0.26460996,0.26460996 0 0 0 43.089876,45.773692 H 42.28114 a 0.26460996,0.26460996 0 0 0 -0.255798,0.19482 c -0.03506,0.129358 -0.0881,0.225608 -0.134876,0.277502 -0.04604,0.05108 -0.07229,0.05664 -0.08578,0.05684 -0.02101,0 -0.07769,-0.02177 -0.144694,-0.139009 -0.067,-0.117245 -0.120923,-0.308101 -0.120923,-0.522966 1e-6,-0.214864 0.05393,-0.406236 0.120923,-0.523482 0.067,-0.117245 0.123687,-0.13901 0.144694,-0.13901 0.01332,-1.9e-5 0.03893,0.005 0.08578,0.05684 0.04684,0.0518 0.101783,0.147788 0.136943,0.277503 a 0.26460996,0.26460996 0 0 0 0.255798,0.19482 h 0.808736 a 0.26460996,0.26460996 0 0 0 0.259416,-0.312126 C 43.192786,44.32624 42.575264,43.656461 41.804684,43.6565 c -0.458257,0 -0.867645,0.244427 -1.1467,0.607198 -0.112409,0.146132 -0.106034,0.3738 -0.177767,0.554488 V 43.92005 A 0.26460996,0.26460996 0 0 0 40.216667,43.6565 H 39.42395 a 0.26460996,0.26460996 0 0 0 -0.265617,0.26355 v 0.480591 C 39.051364,44.206122 39.014987,43.954043 38.833805,43.853387 38.538749,43.689464 38.231188,43.6565 37.966675,43.6565 c -0.264513,0 -0.569863,0.03289 -0.865064,0.196887 -0.254649,0.141472 -0.374073,0.458169 -0.457336,0.77153 -0.08256,-0.313115 -0.199643,-0.629803 -0.454753,-0.77153 -0.295057,-0.163924 -0.602618,-0.195336 -0.86713,-0.195336 -0.264513,0 -0.571931,0.03133 -0.867131,0.195336 -0.328276,0.182375 -0.590141,0.550072 -0.590144,0.994255 3e-6,0.412946 0.193737,0.764247 0.443383,1.013892 0.100212,0.100211 0.276162,0.103043 0.406177,0.175699 h -0.583944 a 0.26460996,0.26460996 0 0 0 -0.263549,0.265617 v 0.13075 a 0.26460996,0.26460996 0 0 0 0.0041,0.0041 c 8.9e-5,0.01782 0.0027,0.03462 0.0036,0.05219 L 33.060463,43.84354 A 0.26460996,0.26460996 0 0 0 32.80885,43.656508 H 32.411975 32.01355 31.220833 a 0.26460996,0.26460996 0 0 0 -0.263549,0.26355 v 0.529167 a 0.26460996,0.26460996 0 0 0 0.263549,0.265617 h 0.273369 l -0.562757,1.826245 A 0.26460996,0.26460996 0 0 0 30.69115,46.302858 h -1.058333 v -2.3828 a 0.26460996,0.26460996 0 0 0 -0.26355,-0.26355 h -0.7953 a 0.26460996,0.26460996 0 0 0 -0.26355,0.26355 v 0.824239 c -0.265943,-0.609427 -0.709984,-1.08782 -1.321883,-1.087789 z m 20.107299,0 c -0.458256,0 -0.865578,0.244427 -1.144633,0.607198 -0.279055,0.362772 -0.443382,0.847274 -0.443383,1.377177 0,0.529904 0.164328,1.013889 0.443383,1.37666 0.279055,0.362772 0.686377,0.607715 1.144633,0.607715 0.742917,-0.0015 1.324679,-0.638769 1.507919,-1.46296 0.212323,0.801285 0.743982,1.46296 1.53479,1.46296 0.713161,0 1.190128,-0.55612 1.455208,-1.240234 v 0.976168 a 0.26460996,0.26460996 0 0 0 0.26355,0.264066 h 0.529167 0.266133 1.321883 a 0.26460996,0.26460996 0 0 0 0.132809,-0.133325 0.26460996,0.26460996 0 0 0 0.132808,0.133325 h 0.529684 0.263549 1.321884 a 0.26460996,0.26460996 0 0 0 0.132808,-0.133325 0.26460996,0.26460996 0 0 0 0.133325,0.133325 h 0.26355 0.529167 1.324467 a 0.26460996,0.26460996 0 0 0 0.263549,-0.264066 v -0.529167 a 0.26460996,0.26460996 0 0 0 -0.263549,-0.265617 h -1.05885 v -0.529167 h 1.05885 a 0.26460996,0.26460996 0 0 0 0.0956,-0.0956 c 0.05396,0.395952 0.127576,0.792321 0.345715,1.075903 0.279056,0.362772 0.685859,0.607715 1.144117,0.607715 a 0.26460996,0.26460996 0 0 0 0.0021,0 c 0.769617,-0.0015 1.386751,-0.671344 1.545125,-1.539441 a 0.26460996,0.26460996 0 0 0 -0.261483,-0.312125 h -0.806669 a 0.26460996,0.26460996 0 0 0 -0.256315,0.19482 c -0.03506,0.129358 -0.08965,0.225608 -0.136426,0.277502 -0.04678,0.05189 -0.0725,0.05679 -0.08578,0.05684 -0.02101,0 -0.07769,-0.02177 -0.144694,-0.139009 -0.067,-0.117245 -0.119372,-0.308102 -0.119372,-0.522966 0,-0.214864 0.05237,-0.406236 0.119372,-0.523482 0.067,-0.117245 0.123686,-0.13901 0.144694,-0.13901 a 0.26460996,0.26460996 0 0 0 0.0016,0 c 0.01332,-1.9e-5 0.03945,0.005 0.0863,0.05684 0.04685,0.0518 0.101267,0.147788 0.136426,0.277503 a 0.26460996,0.26460996 0 0 0 0.254248,0.19482 h 0.80822 a 0.26460996,0.26460996 0 0 0 0.261999,-0.312126 c -0.01523,-0.08347 -0.03597,-0.164538 -0.05943,-0.243912 a 0.26460996,0.26460996 0 0 0 0.09819,0.02687 h 0.529167 v 2.382801 a 0.26460996,0.26460996 0 0 0 0.266134,0.264066 H 63.5 a 0.26460996,0.26460996 0 0 0 0.26355,-0.264066 v -2.382801 h 0.529167 v 2.382801 a 0.26460996,0.26460996 0 0 0 0.266133,0.264066 h 0.792717 a 0.26460996,0.26460996 0 0 0 0.265617,-0.264066 v -0.974618 c 0.265462,0.683057 0.742751,1.238684 1.455208,1.238684 0.713161,0 1.190128,-0.556119 1.455208,-1.240234 v 0.976168 a 0.26460996,0.26460996 0 0 0 0.26355,0.264066 h 0.794784 a 0.26460996,0.26460996 0 0 0 0.263549,-0.264066 v -0.656291 l 0.302824,0.503845 0.172083,0.287321 a 0.26460996,0.26460996 0 0 0 0.22841,0.129191 h 0.62115 A 0.26460996,0.26460996 0 0 0 71.4375,47.361184 V 43.92005 A 0.26460996,0.26460996 0 0 0 71.17395,43.6565 h -0.7953 a 0.26460996,0.26460996 0 0 0 -0.26355,0.26355 v 0.634587 l -0.302824,-0.505913 -0.15813,-0.263549 A 0.26460996,0.26460996 0 0 0 69.427804,43.656508 H 68.79115 a 0.26460996,0.26460996 0 0 0 -0.26355,0.26355 v 0.505912 0.470256 c -0.26508,-0.684114 -0.742047,-1.239718 -1.455208,-1.239718 -0.712456,0 -1.189745,0.555111 -1.455208,1.238168 v -0.974618 a 0.26460996,0.26460996 0 0 0 -0.265617,-0.26355 H 64.55885 a 0.26460996,0.26460996 0 0 0 -0.133325,0.132809 0.26460996,0.26460996 0 0 0 -0.132808,-0.132809 h -2.380734 a 0.26460996,0.26460996 0 0 0 -0.263549,0.26355 v 0.623735 c -0.281113,-0.530204 -0.761876,-0.887313 -1.323951,-0.887285 -0.458256,0 -0.865577,0.244427 -1.144633,0.607198 -0.177731,0.231052 -0.209586,0.566795 -0.281119,0.876949 a 0.26460996,0.26460996 0 0 0 -0.160197,-0.162264 h -1.05885 v -0.263549 h 1.05885 a 0.26460996,0.26460996 0 0 0 0.263549,-0.265617 v -0.529167 a 0.26460996,0.26460996 0 0 0 -0.263549,-0.26355 H 57.414067 57.017708 56.62135 a 0.26460996,0.26460996 0 0 0 -0.266133,0.26355 v 1.058333 h -0.26355 a 0.26460996,0.26460996 0 0 0 -0.265617,0.265617 v 0.529684 a 0.26460996,0.26460996 0 0 0 0.265617,0.263549 h 0.26355 v 0.265617 H 55.29895 v -2.3828 a 0.26460996,0.26460996 0 0 0 -0.265617,-0.26355 H 54.2401 a 0.26460996,0.26460996 0 0 0 -0.265617,0.26355 v 2.3828 H 52.91615 v -2.3828 a 0.26460996,0.26460996 0 0 0 -0.26355,-0.26355 h -0.7953 a 0.26460996,0.26460996 0 0 0 -0.26355,0.26355 v 0.976168 c -0.26508,-0.684114 -0.742047,-1.239718 -1.455208,-1.239718 -0.790203,0 -1.321973,0.660525 -1.53479,1.460893 -0.184204,-0.823901 -0.764859,-1.46093 -1.507919,-1.460893 z m -35.982299,0.792717 a 0.26460996,0.26460996 0 0 0 0.263549,0.265617 h 0.273369 l -0.536918,1.744079 z m 7.407816,0.529166 c 0.01332,-1.9e-5 0.03945,0.005 0.0863,0.05684 0.04685,0.0518 0.101266,0.147788 0.136426,0.277503 a 0.26460996,0.26460996 0 0 0 0.255798,0.19482 h 0.808736 a 0.26460996,0.26460996 0 0 0 0.09198,-0.02687 c -0.0048,0.06027 -0.05684,0.09875 -0.05684,0.160197 0,0.06145 0.05202,0.09941 0.05684,0.15968 a 0.26460996,0.26460996 0 0 0 -0.09405,-0.02687 h -0.808736 a 0.26460996,0.26460996 0 0 0 -0.255798,0.19482 c -0.03506,0.129358 -0.08758,0.225608 -0.134359,0.277502 -0.04604,0.05108 -0.07281,0.05664 -0.0863,0.05684 -0.02101,0 -0.07718,-0.02177 -0.144177,-0.139009 -0.067,-0.117245 -0.12144,-0.308101 -0.12144,-0.522966 0,-0.214864 0.05445,-0.406236 0.12144,-0.523482 0.067,-0.117245 0.12317,-0.13901 0.144177,-0.13901 z m 3.043225,0 c 0.08256,0 0.168962,0.04441 0.251665,0.160197 0.0827,0.115784 0.144694,0.297644 0.144694,0.502295 10e-7,0.204651 -0.06199,0.385994 -0.144694,0.501778 -0.0827,0.115784 -0.169102,0.160197 -0.251665,0.160197 -0.08256,0 -0.171545,-0.04441 -0.254248,-0.160197 -0.0827,-0.115784 -0.144177,-0.297127 -0.144177,-0.501778 0,-0.204651 0.06148,-0.386511 0.144177,-0.502295 0.0827,-0.115784 0.171686,-0.160197 0.254248,-0.160197 z m 5.423959,0 c 0.01332,-1.9e-5 0.03893,0.005 0.08578,0.05684 0.04685,0.0518 0.101266,0.147788 0.136425,0.277503 a 0.26460996,0.26460996 0 0 0 0.255799,0.19482 h 0.808736 a 0.26460996,0.26460996 0 0 0 0.03514,-0.0093 v 0.286804 a 0.26460996,0.26460996 0 0 0 -0.03721,-0.01188 h -0.80822 a 0.26460996,0.26460996 0 0 0 -0.255798,0.195337 c -0.03506,0.129358 -0.09017,0.225608 -0.136943,0.277502 -0.04603,0.05107 -0.07024,0.05664 -0.08371,0.05684 -0.02101,0 -0.07769,-0.02177 -0.144694,-0.139009 -0.067,-0.117245 -0.120923,-0.308619 -0.120923,-0.523483 0,-0.214863 0.05393,-0.405719 0.120923,-0.522965 0.067,-0.117245 0.123687,-0.13901 0.144694,-0.13901 z m 8.331791,0 c 9.79e-4,-8e-6 0.001,0 0.0021,0 0.07965,0 0.117563,0.01473 0.156063,0.02377 a 0.26460996,0.26460996 0 0 0 0.0801,0.08165 c -0.089,-0.01913 -0.140048,-0.103307 -0.236161,-0.103353 0.0016,5e-6 -0.0034,-0.002 -0.0021,-0.0021 z m 2.650484,0 c 0.07768,0.0012 0.114305,0.01476 0.152446,0.02377 a 0.26460996,0.26460996 0 0 0 0.07596,0.07803 c -0.08651,-0.01817 -0.135214,-0.101619 -0.22841,-0.101803 z m 9.125024,0 c 0.01332,-1.9e-5 0.04101,0.005 0.08785,0.05684 0.04684,0.0518 0.09972,0.147788 0.134876,0.277503 a 0.26460996,0.26460996 0 0 0 0.255798,0.19482 h 0.80822 a 0.26460996,0.26460996 0 0 0 0.09198,-0.02687 c -0.0048,0.06027 -0.05684,0.09875 -0.05684,0.160197 0,0.06145 0.05202,0.09941 0.05684,0.15968 a 0.26460996,0.26460996 0 0 0 -0.09354,-0.02687 H 47.57229 a 0.26460996,0.26460996 0 0 0 -0.253731,0.19482 c -0.03506,0.129358 -0.09016,0.225608 -0.136943,0.277502 -0.04678,0.05189 -0.0725,0.05679 -0.08578,0.05684 -0.02101,0 -0.07769,-0.02177 -0.144694,-0.139009 -0.067,-0.117245 -0.118855,-0.308101 -0.118855,-0.522966 0,-0.214864 0.05185,-0.406236 0.118855,-0.523482 0.067,-0.117245 0.123686,-0.13901 0.144694,-0.13901 z m 3.042709,0 c 0.08256,0 0.169478,0.04441 0.252181,0.160197 0.0827,0.115784 0.144177,0.297644 0.144177,0.502295 0,0.204651 -0.06148,0.385994 -0.144177,0.501778 -0.0827,0.115784 -0.169619,0.160197 -0.252181,0.160197 -0.08256,0 -0.168962,-0.04441 -0.251664,-0.160197 -0.0827,-0.115784 -0.144694,-0.297127 -0.144694,-0.501778 10e-7,-0.204651 0.06199,-0.386511 0.144694,-0.502295 0.0827,-0.115784 0.169101,-0.160197 0.251664,-0.160197 z m 16.93385,0 c 0.08256,0 0.168961,0.04441 0.251664,0.160197 0.0827,0.115784 0.144694,0.297644 0.144694,0.502295 0,0.204651 -0.06199,0.385994 -0.144694,0.501778 -0.0827,0.115784 -0.169102,0.160197 -0.251664,0.160197 -0.08256,0 -0.169478,-0.04441 -0.252181,-0.160197 -0.0827,-0.115784 -0.144177,-0.297127 -0.144177,-0.501778 0,-0.204651 0.06148,-0.386511 0.144177,-0.502295 0.0827,-0.115784 0.169618,-0.160197 0.252181,-0.160197 z m -30.439486,0.144694 c 0.0692,0.273743 0.14029,0.554736 0.321944,0.73639 0.100887,0.100885 0.277171,0.104865 0.408244,0.177766 H 36.7776 a 0.26460996,0.26460996 0 0 0 -0.121439,0.118856 c -0.06937,-0.273083 -0.13908,-0.555077 -0.320394,-0.736389 -0.100212,-0.100212 -0.276162,-0.103043 -0.406177,-0.1757 h 0.581877 a 0.26460996,0.26460996 0 0 0 0.121439,-0.120923 z m 1.945101,0.120923 h 0.580326 v 0.582394 c -0.07312,-0.130041 -0.07771,-0.306639 -0.177766,-0.406694 -0.09949,-0.09949 -0.273674,-0.103308 -0.40256,-0.1757 z m -3.492293,0.95343 c 0.089,0.01913 0.140565,0.103307 0.236678,0.103353 -6.84e-4,-2e-6 6.4e-4,0.0021 0,0.0021 -0.07965,0 -0.118081,-0.01473 -0.15658,-0.02377 a 0.26460996,0.26460996 0 0 0 -0.0801,-0.08165 z m 2.646867,0.0021 c 0.08826,0.0188 0.138851,0.10124 0.234094,0.101286 -0.07868,0 -0.114639,-0.01393 -0.153996,-0.02325 a 0.26460996,0.26460996 0 0 0 -0.0801,-0.07803 z"
         inkscape:label="Shadow" /><path
         id="path2111"
         style="fill:#000092;color:#000000;stroke-linecap:round;stroke-linejoin:round;-inkscape-stroke:none;paint-order:stroke markers fill"
         inkscape:label="Outline"
         d="M 7.9375001 43.126825 A 0.26460996 0.26460996 0 0 0 7.6739503 43.392442 L 7.6739503 43.898354 L 7.6739503 46.832025 A 0.26460996 0.26460996 0 0 0 7.9375001 47.095575 L 8.7302166 47.095575 A 0.26460996 0.26460996 0 0 0 8.9963502 46.832025 L 8.9963502 46.175734 L 9.2986574 46.67958 L 9.4707399 46.9669 A 0.26460996 0.26460996 0 0 0 9.6970827 47.095575 L 10.318233 47.095575 A 0.26460996 0.26460996 0 0 0 10.40815 47.007725 A 0.26460996 0.26460996 0 0 0 10.58385 47.095575 L 11.412223 47.095575 A 0.26460996 0.26460996 0 0 0 11.665955 46.907989 L 11.851473 46.302858 L 12.224577 46.302858 L 12.412162 46.907989 A 0.26460996 0.26460996 0 0 0 12.663827 47.095575 L 13.494267 47.095575 A 0.26460996 0.26460996 0 0 0 13.673584 47.011859 A 0.26460996 0.26460996 0 0 0 13.757817 47.095575 L 14.023434 47.095575 L 14.5526 47.095575 A 0.26460996 0.26460996 0 0 0 14.81615 46.832025 L 14.81615 45.894614 L 14.863176 45.962827 A 0.26460996 0.26460996 0 0 0 15.298808 45.962827 L 15.345833 45.896682 L 15.345833 46.832025 A 0.26460996 0.26460996 0 0 0 15.61145 47.095575 L 16.13855 47.095575 L 16.404167 47.095575 A 0.26460996 0.26460996 0 0 0 16.667717 46.832025 L 16.667717 45.933372 C 16.739447 46.114061 16.73308 46.342245 16.845484 46.488377 C 17.124539 46.851148 17.533927 47.095575 17.992184 47.095575 C 18.735101 47.094075 19.316862 46.456805 19.500102 45.632615 C 19.712426 46.433899 20.244085 47.095575 21.034892 47.095575 C 22.00757 47.095575 22.75365 46.182006 22.75365 45.1112 C 22.75365 44.040395 22.007569 43.126825 21.034892 43.126825 C 20.244085 43.126825 19.712426 43.788501 19.500102 44.589785 C 19.31595 43.765785 18.735302 43.126788 17.992184 43.126825 C 17.533927 43.126825 17.124539 43.371768 16.845484 43.73454 C 16.733075 43.880671 16.73945 44.108339 16.667717 44.289028 L 16.667717 43.392442 A 0.26460996 0.26460996 0 0 0 16.404167 43.126825 L 15.800586 43.126825 A 0.26460996 0.26460996 0 0 0 15.584062 43.239996 L 15.081767 43.957265 L 14.579989 43.239996 A 0.26460996 0.26460996 0 0 0 14.363464 43.126825 L 13.757817 43.126825 A 0.26460996 0.26460996 0 0 0 13.494267 43.392442 L 13.494267 45.935439 L 12.687598 43.31441 A 0.26460996 0.26460996 0 0 0 12.435417 43.126825 L 12.039059 43.126825 L 11.6427 43.126825 L 10.8474 43.126825 A 0.26460996 0.26460996 0 0 0 10.58385 43.392442 A 0.26460996 0.26460996 0 0 0 10.318233 43.126825 L 9.5255169 43.126825 A 0.26460996 0.26460996 0 0 0 9.2599 43.392442 L 9.2599 44.021344 L 8.9591432 43.519566 L 8.7989463 43.256016 A 0.26460996 0.26460996 0 0 0 8.5720867 43.126825 L 7.9375001 43.126825 z M 26.45885 43.126825 C 26.000594 43.126825 25.591722 43.371768 25.312667 43.73454 C 25.033612 44.097311 24.87135 44.581297 24.87135 45.1112 C 24.87135 45.641103 25.033612 46.125605 25.312667 46.488377 C 25.591722 46.851148 26.000594 47.095575 26.45885 47.095575 C 27.070471 47.094375 27.516 46.615309 27.78125 46.005719 L 27.78125 46.832025 A 0.26460996 0.26460996 0 0 0 28.0448 47.095575 L 28.573967 47.095575 L 28.8401 47.095575 L 30.161983 47.095575 A 0.26460996 0.26460996 0 0 0 30.2519 47.007725 A 0.26460996 0.26460996 0 0 0 30.4276 47.095575 L 31.255973 47.095575 A 0.26460996 0.26460996 0 0 0 31.509705 46.907989 L 31.695223 46.302858 L 32.068327 46.302858 L 32.255912 46.907989 A 0.26460996 0.26460996 0 0 0 32.507577 47.095575 L 33.338017 47.095575 A 0.26460996 0.26460996 0 0 0 33.589681 46.753994 L 33.512683 46.504396 C 33.61782 46.672072 33.762785 46.808247 33.925578 46.898688 C 34.220649 47.062596 34.528713 47.095575 34.793225 47.095575 C 35.057738 47.095575 35.365156 47.062683 35.660356 46.898688 C 35.915226 46.757095 36.034068 46.440895 36.117175 46.127158 C 36.199965 46.439717 36.317662 46.755076 36.572445 46.896621 C 36.867514 47.060528 37.172996 47.094024 37.437508 47.094024 C 37.702021 47.094024 38.00944 47.060616 38.304639 46.896621 C 38.484972 46.796437 38.521547 46.545082 38.629167 46.351434 L 38.629167 46.832025 A 0.26460996 0.26460996 0 0 0 38.894784 47.095575 L 39.6875 47.095575 A 0.26460996 0.26460996 0 0 0 39.95105 46.832025 L 39.95105 45.933889 C 40.02278 46.114577 40.016413 46.342245 40.128817 46.488377 C 40.407873 46.851148 40.817259 47.095575 41.275517 47.095575 C 42.045133 47.094075 42.661753 46.424747 42.820125 45.556651 A 0.26460996 0.26460996 0 0 0 42.56071 45.244008 L 41.751974 45.244008 A 0.26460996 0.26460996 0 0 0 41.496175 45.439345 C 41.461115 45.568703 41.408076 45.664954 41.3613 45.716848 C 41.31526 45.767928 41.289007 45.773492 41.275517 45.773692 C 41.254507 45.773693 41.197825 45.751923 41.130823 45.634682 C 41.063823 45.517436 41.0099 45.326065 41.0099 45.1112 C 41.0099 44.896336 41.06383 44.704962 41.130823 44.587718 C 41.197823 44.470472 41.254509 44.449225 41.275517 44.449225 C 41.288837 44.449206 41.31445 44.454229 41.3613 44.506069 C 41.40814 44.557869 41.463082 44.65334 41.498242 44.783054 A 0.26460996 0.26460996 0 0 0 41.754041 44.978391 L 42.56226 44.978391 A 0.26460996 0.26460996 0 0 0 42.822193 44.667816 C 42.663619 43.798631 42.046096 43.126786 41.275517 43.126825 C 40.817259 43.126825 40.407873 43.371768 40.128817 43.73454 C 40.016408 43.880671 40.022783 44.108339 39.95105 44.289028 L 39.95105 43.392442 A 0.26460996 0.26460996 0 0 0 39.6875 43.126825 L 38.894784 43.126825 A 0.26460996 0.26460996 0 0 0 38.62865 43.392442 L 38.62865 43.870965 C 38.52168 43.676447 38.485821 43.424885 38.304639 43.324229 C 38.009582 43.160305 37.704088 43.126825 37.439575 43.126825 C 37.175063 43.126825 36.867644 43.160233 36.572445 43.324229 C 36.317794 43.465701 36.198371 43.782397 36.115108 44.095758 C 36.032468 43.782825 35.915359 43.467964 35.660356 43.326296 C 35.365301 43.16237 35.057737 43.128892 34.793225 43.128892 C 34.528712 43.128892 34.220778 43.1623 33.925578 43.326296 C 33.597301 43.508671 33.338019 43.874301 33.338017 44.318483 C 33.338019 44.731429 33.529687 45.082213 33.779334 45.331858 C 33.879546 45.432071 34.055497 45.434901 34.18551 45.507558 L 33.603634 45.507558 A 0.26460996 0.26460996 0 0 0 33.338017 45.773692 L 33.338017 45.904433 A 0.26460996 0.26460996 0 0 0 33.340084 45.9065 C 33.340095 45.922536 33.342509 45.937694 33.343185 45.953526 L 32.531348 43.31441 A 0.26460996 0.26460996 0 0 0 32.279167 43.126825 L 31.882809 43.126825 L 31.48645 43.126825 L 30.69115 43.126825 A 0.26460996 0.26460996 0 0 0 30.4276 43.392442 L 30.4276 43.920058 A 0.26460996 0.26460996 0 0 0 30.69115 44.185675 L 30.965035 44.185675 L 30.402279 46.01192 A 0.26460996 0.26460996 0 0 0 30.161983 45.773692 L 29.10365 45.773692 L 29.10365 43.392442 A 0.26460996 0.26460996 0 0 0 28.8401 43.126825 L 28.0448 43.126825 A 0.26460996 0.26460996 0 0 0 27.78125 43.392442 L 27.78125 44.214614 C 27.515184 43.605705 27.070426 43.126794 26.45885 43.126825 z M 46.56615 43.126825 C 46.107893 43.126825 45.701089 43.371768 45.422034 43.73454 C 45.142979 44.097311 44.97865 44.581297 44.97865 45.1112 C 44.97865 45.641103 45.142979 46.125605 45.422034 46.488377 C 45.701089 46.851148 46.107893 47.095575 46.56615 47.095575 C 47.309067 47.094075 47.890829 46.456805 48.074068 45.632615 C 48.286391 46.433899 48.818568 47.095575 49.609375 47.095575 C 50.321831 47.095575 50.799121 46.540465 51.064583 45.857407 L 51.064583 46.832025 A 0.26460996 0.26460996 0 0 0 51.3302 47.095575 L 51.8573 47.095575 L 52.122917 47.095575 L 53.445317 47.095575 A 0.26460996 0.26460996 0 0 0 53.578125 46.964833 A 0.26460996 0.26460996 0 0 0 53.710934 47.095575 L 54.2401 47.095575 L 54.50365 47.095575 L 55.82605 47.095575 A 0.26460996 0.26460996 0 0 0 55.958858 46.964833 A 0.26460996 0.26460996 0 0 0 56.091667 47.095575 L 56.355217 47.095575 L 56.8849 47.095575 L 58.20885 47.095575 A 0.26460996 0.26460996 0 0 0 58.4724 46.832025 L 58.4724 46.302858 A 0.26460996 0.26460996 0 0 0 58.20885 46.037241 L 57.150517 46.037241 L 57.150517 45.507558 L 58.20885 45.507558 A 0.26460996 0.26460996 0 0 0 58.304452 45.411957 C 58.358412 45.807908 58.432026 46.204794 58.650167 46.488377 C 58.929222 46.851148 59.336543 47.095575 59.7948 47.095575 A 0.26460996 0.26460996 0 0 0 59.796867 47.095575 C 60.566484 47.094075 61.183618 46.424747 61.341992 45.556651 A 0.26460996 0.26460996 0 0 0 61.079993 45.244008 L 60.273324 45.244008 A 0.26460996 0.26460996 0 0 0 60.017525 45.439345 C 59.982465 45.568704 59.927879 45.664954 59.8811 45.716848 C 59.83432 45.768738 59.80808 45.773642 59.7948 45.773692 C 59.77379 45.773692 59.719171 45.751923 59.652173 45.634682 C 59.585173 45.517436 59.53125 45.326064 59.53125 45.1112 C 59.53125 44.896336 59.585179 44.704962 59.652173 44.587718 C 59.719173 44.470472 59.773792 44.449225 59.7948 44.449225 A 0.26460996 0.26460996 0 0 0 59.796867 44.449225 C 59.810187 44.449206 59.8358 44.454229 59.88265 44.506069 C 59.9295 44.557869 59.984433 44.65334 60.019592 44.783054 A 0.26460996 0.26460996 0 0 0 60.273324 44.978391 L 61.084127 44.978391 A 0.26460996 0.26460996 0 0 0 61.344059 44.667816 C 61.328718 44.583725 61.307807 44.502321 61.284115 44.422353 A 0.26460996 0.26460996 0 0 0 61.382817 44.449225 L 61.911983 44.449225 L 61.911983 46.832025 A 0.26460996 0.26460996 0 0 0 62.1776 47.095575 L 62.970833 47.095575 A 0.26460996 0.26460996 0 0 0 63.23645 46.832025 L 63.23645 44.449225 L 63.76355 44.449225 L 63.76355 46.832025 A 0.26460996 0.26460996 0 0 0 64.029167 47.095575 L 64.8224 47.095575 A 0.26460996 0.26460996 0 0 0 65.088017 46.832025 L 65.088017 45.857407 C 65.35348 46.540465 65.830769 47.095575 66.543225 47.095575 C 67.256387 47.095576 67.732837 46.539456 67.997917 45.85534 L 67.997917 46.832025 A 0.26460996 0.26460996 0 0 0 68.261467 47.095575 L 69.056767 47.095575 A 0.26460996 0.26460996 0 0 0 69.320317 46.832025 L 69.320317 46.175734 L 69.623141 46.67958 L 69.794706 46.9669 A 0.26460996 0.26460996 0 0 0 70.023633 47.095575 L 70.644784 47.095575 A 0.26460996 0.26460996 0 0 0 70.908333 46.832025 L 70.908333 43.392442 A 0.26460996 0.26460996 0 0 0 70.644784 43.126825 L 69.849483 43.126825 A 0.26460996 0.26460996 0 0 0 69.585934 43.392442 L 69.585934 44.025478 L 69.28311 43.519566 L 69.12498 43.256016 A 0.26460996 0.26460996 0 0 0 68.898637 43.126825 L 68.261467 43.126825 A 0.26460996 0.26460996 0 0 0 67.997917 43.392442 L 67.997917 43.898354 L 67.997917 44.367059 C 67.732837 43.682945 67.256387 43.126825 66.543225 43.126825 C 65.830769 43.126825 65.35348 43.681936 65.088017 44.364992 L 65.088017 43.392442 A 0.26460996 0.26460996 0 0 0 64.8224 43.126825 L 64.029167 43.126825 A 0.26460996 0.26460996 0 0 0 63.896358 43.259633 A 0.26460996 0.26460996 0 0 0 63.76355 43.126825 L 61.382817 43.126825 A 0.26460996 0.26460996 0 0 0 61.119267 43.392442 L 61.119267 44.016176 C 60.838164 43.485337 60.356921 43.126796 59.7948 43.126825 C 59.336543 43.126825 58.929738 43.371768 58.650684 43.73454 C 58.472952 43.965591 58.440579 44.301334 58.369047 44.611489 A 0.26460996 0.26460996 0 0 0 58.20885 44.449225 L 57.150517 44.449225 L 57.150517 44.185675 L 58.20885 44.185675 A 0.26460996 0.26460996 0 0 0 58.472917 43.920058 L 58.472917 43.392442 A 0.26460996 0.26460996 0 0 0 58.20885 43.126825 L 56.8849 43.126825 L 56.488542 43.126825 L 56.091667 43.126825 A 0.26460996 0.26460996 0 0 0 55.82605 43.392442 L 55.82605 44.449225 L 55.5625 44.449225 A 0.26460996 0.26460996 0 0 0 55.29895 44.714842 L 55.29895 45.244008 A 0.26460996 0.26460996 0 0 0 55.5625 45.507558 L 55.82605 45.507558 L 55.82605 45.773692 L 54.769784 45.773692 L 54.769784 43.392442 A 0.26460996 0.26460996 0 0 0 54.50365 43.126825 L 53.710934 43.126825 A 0.26460996 0.26460996 0 0 0 53.445317 43.392442 L 53.445317 45.773692 L 52.386467 45.773692 L 52.386467 43.392442 A 0.26460996 0.26460996 0 0 0 52.122917 43.126825 L 51.3302 43.126825 A 0.26460996 0.26460996 0 0 0 51.064583 43.392442 L 51.064583 44.364992 C 50.799121 43.681936 50.321831 43.126825 49.609375 43.126825 C 48.818568 43.126825 48.286392 43.788501 48.074068 44.589785 C 47.8899 43.765817 47.309249 43.126788 46.56615 43.126825 z M 10.58385 43.920058 A 0.26460996 0.26460996 0 0 0 10.8474 44.185675 L 11.121285 44.185675 L 10.58385 45.929754 L 10.58385 43.920058 z M 17.992184 44.449225 C 18.005504 44.449206 18.031116 44.454229 18.077966 44.506069 C 18.124816 44.557869 18.179749 44.65334 18.214909 44.783054 A 0.26460996 0.26460996 0 0 0 18.470707 44.978391 L 19.279443 44.978391 A 0.26460996 0.26460996 0 0 0 19.370911 44.951003 C 19.366111 45.011273 19.314583 45.049754 19.314583 45.1112 C 19.314583 45.17265 19.366091 45.211131 19.370911 45.271397 A 0.26460996 0.26460996 0 0 0 19.277376 45.244008 L 18.46864 45.244008 A 0.26460996 0.26460996 0 0 0 18.212842 45.439345 C 18.177782 45.568703 18.124742 45.664954 18.077966 45.716848 C 18.031926 45.767928 18.005674 45.773492 17.992184 45.773692 C 17.971174 45.773693 17.91449 45.751923 17.84749 45.634682 C 17.78049 45.517436 17.726567 45.326065 17.726567 45.1112 C 17.726568 44.896336 17.780496 44.704962 17.84749 44.587718 C 17.914489 44.470472 17.971177 44.449225 17.992184 44.449225 z M 21.035409 44.449225 C 21.117969 44.449225 21.204371 44.49571 21.287073 44.611489 C 21.369773 44.727273 21.431767 44.90655 21.431767 45.1112 C 21.431767 45.315851 21.369775 45.497711 21.287073 45.613495 C 21.204373 45.729279 21.117972 45.773692 21.035409 45.773692 C 20.952849 45.773692 20.863864 45.729281 20.781161 45.613495 C 20.698461 45.497711 20.636467 45.315851 20.636467 45.1112 C 20.636467 44.90655 20.69846 44.727273 20.781161 44.611489 C 20.863861 44.495705 20.952847 44.449225 21.035409 44.449225 z M 26.45885 44.449225 C 26.47217 44.449206 26.4983 44.454229 26.54515 44.506069 C 26.592 44.557869 26.646416 44.65334 26.681576 44.783054 A 0.26460996 0.26460996 0 0 0 26.937374 44.978391 L 27.74611 44.978391 A 0.26460996 0.26460996 0 0 0 27.78125 44.968573 L 27.78125 45.255894 A 0.26460996 0.26460996 0 0 0 27.744043 45.244008 L 26.935307 45.244008 A 0.26460996 0.26460996 0 0 0 26.679509 45.439345 C 26.644449 45.568704 26.591925 45.664954 26.54515 45.716848 C 26.49911 45.767928 26.47234 45.773492 26.45885 45.773692 C 26.43784 45.773692 26.381674 45.751923 26.314673 45.634682 C 26.247673 45.517436 26.193233 45.326064 26.193233 45.1112 C 26.193233 44.896336 26.247679 44.704962 26.314673 44.587718 C 26.381673 44.470472 26.437843 44.449225 26.45885 44.449225 z M 34.791158 44.449225 C 34.792136 44.449217 34.792204 44.449225 34.793225 44.449225 C 34.872875 44.449225 34.910788 44.463439 34.949288 44.472479 A 0.26460996 0.26460996 0 0 0 35.029387 44.554645 C 34.940387 44.535515 34.889338 44.451338 34.793225 44.451292 C 34.794825 44.451297 34.789858 44.449325 34.791158 44.449225 z M 37.439575 44.449225 C 37.518255 44.449225 37.554214 44.463159 37.593571 44.472479 A 0.26460996 0.26460996 0 0 0 37.670052 44.551027 C 37.582922 44.532727 37.533483 44.44927 37.439575 44.449225 z M 46.56615 44.449225 C 46.57947 44.449206 46.607677 44.454229 46.654517 44.506069 C 46.701357 44.557869 46.75372 44.65334 46.788875 44.783054 A 0.26460996 0.26460996 0 0 0 47.044674 44.978391 L 47.85341 44.978391 A 0.26460996 0.26460996 0 0 0 47.945394 44.951003 C 47.940594 45.011273 47.88855 45.049754 47.88855 45.1112 C 47.88855 45.17265 47.940574 45.211131 47.945394 45.271397 A 0.26460996 0.26460996 0 0 0 47.851343 45.244008 L 47.043124 45.244008 A 0.26460996 0.26460996 0 0 0 46.788875 45.439345 C 46.753815 45.568703 46.699228 45.664954 46.65245 45.716848 C 46.60567 45.768738 46.57943 45.773642 46.56615 45.773692 C 46.54514 45.773693 46.488974 45.751923 46.421973 45.634682 C 46.354973 45.517436 46.3026 45.326065 46.3026 45.1112 C 46.3026 44.896336 46.354972 44.704962 46.421973 44.587718 C 46.488973 44.470472 46.545143 44.449225 46.56615 44.449225 z M 49.609375 44.449225 C 49.691935 44.449225 49.778853 44.49571 49.861556 44.611489 C 49.944256 44.727273 50.005733 44.90655 50.005733 45.1112 C 50.005733 45.315851 49.944257 45.497711 49.861556 45.613495 C 49.778856 45.729279 49.691938 45.773692 49.609375 45.773692 C 49.526815 45.773692 49.439897 45.729281 49.357194 45.613495 C 49.274494 45.497711 49.213017 45.315851 49.213017 45.1112 C 49.213017 44.90655 49.274493 44.727273 49.357194 44.611489 C 49.439894 44.495705 49.526813 44.449225 49.609375 44.449225 z M 66.543225 44.449225 C 66.625785 44.449225 66.712187 44.49571 66.794889 44.611489 C 66.877589 44.727273 66.939583 44.906549 66.939583 45.1112 C 66.939583 45.315851 66.87759 45.497711 66.794889 45.613495 C 66.71219 45.729279 66.625787 45.773693 66.543225 45.773692 C 66.460665 45.773692 66.373746 45.729281 66.291044 45.613495 C 66.208344 45.497711 66.14635 45.315851 66.14635 45.1112 C 66.14635 44.90655 66.208342 44.727273 66.291044 44.611489 C 66.373744 44.495705 66.460662 44.449225 66.543225 44.449225 z M 36.10374 44.593919 C 36.172879 44.867874 36.243919 45.150094 36.425684 45.331858 C 36.525654 45.431828 36.700678 45.43499 36.83031 45.507558 L 36.247917 45.507558 A 0.26460996 0.26460996 0 0 0 36.126994 45.626931 C 36.057624 45.353848 35.987913 45.071853 35.8066 44.890541 C 35.706387 44.79033 35.530437 44.787498 35.400423 44.714842 L 35.9823 44.714842 A 0.26460996 0.26460996 0 0 0 36.10374 44.593919 z M 38.04884 44.714842 L 38.62865 44.714842 L 38.62865 45.296718 C 38.55553 45.166677 38.551454 44.990596 38.4514 44.890541 C 38.35191 44.791052 38.177726 44.787233 38.04884 44.714842 z M 34.556547 45.667755 C 34.645547 45.686885 34.697112 45.771579 34.793225 45.771625 C 34.792541 45.771623 34.793865 45.773692 34.793225 45.773692 C 34.713575 45.773692 34.675145 45.75896 34.636646 45.74992 A 0.26460996 0.26460996 0 0 0 34.556547 45.668272 L 34.556547 45.667755 z M 37.204964 45.669822 C 37.292714 45.688402 37.342866 45.77158 37.437508 45.771625 C 37.358828 45.771625 37.322353 45.757173 37.282996 45.747853 A 0.26460996 0.26460996 0 0 0 37.204964 45.669822 z "
         transform="translate(0)" /><path
         style="color:#000000;display:inline;fill:#000000;stroke-width:0.529167;stroke-linecap:round;stroke-linejoin:round;-inkscape-stroke:none;paint-order:stroke markers fill"
         d="m 7.9375,43.391667 v 0.505912 2.933671 H 8.73125 V 45.220496 L 9.525,46.543412 9.6975993,46.83125 H 10.31875 V 43.391667 H 9.525 v 1.5875 L 8.73125,43.65625 8.5726034,43.391667 Z m 2.910417,0 v 0.529166 h 0.630969 l -0.895553,2.910417 h 0.829407 l 0.24443,-0.79375 h 0.762744 l 0.244429,0.79375 h 0.829407 l -1.058333,-3.439583 h -0.396875 -0.396875 z m 2.910416,0 v 3.439583 h 0.264584 0.529166 v -1.779736 l 0.529167,0.759643 0.529167,-0.759643 v 1.779736 h 0.529166 0.264584 v -3.439583 h -0.604098 l -0.718819,1.028361 -0.718819,-1.028361 z m 4.233334,0 a 1.3229166,1.7197917 0 0 0 -1.322917,1.719791 1.3229166,1.7197917 0 0 0 1.322917,1.719792 1.3229166,1.7197917 0 0 0 1.285193,-1.322917 H 18.46864 A 0.52916664,0.92604166 0 0 1 17.991667,46.0375 0.52916664,0.92604166 0 0 1 17.4625,45.111458 a 0.52916664,0.92604166 0 0 1 0.529167,-0.926041 0.52916664,0.92604166 0 0 1 0.478523,0.529166 h 0.808737 a 1.3229166,1.7197917 0 0 0 -1.28726,-1.322916 z m 3.042708,0 a 1.4552083,1.7197917 0 0 0 -1.455208,1.719791 1.4552083,1.7197917 0 0 0 1.455208,1.719792 1.4552083,1.7197917 0 0 0 1.455208,-1.719792 1.4552083,1.7197917 0 0 0 -1.455208,-1.719791 z m 5.423958,0 a 1.3229166,1.7197917 0 0 0 -1.322916,1.719791 1.3229166,1.7197917 0 0 0 1.322916,1.719792 1.3229166,1.7197917 0 0 0 1.285193,-1.322917 h -0.808219 a 0.52916664,0.92604166 0 0 1 -0.476974,0.529167 0.52916664,0.92604166 0 0 1 -0.529166,-0.926042 0.52916664,0.92604166 0 0 1 0.529166,-0.926041 0.52916664,0.92604166 0 0 1 0.478524,0.529166 h 0.808736 a 1.3229166,1.7197917 0 0 0 -1.28726,-1.322916 z m 1.5875,0 V 46.83125 H 28.575 28.839583 30.1625 V 46.0375 h -1.322917 v -2.645833 z m 2.645834,0 v 0.529166 h 0.630969 l -0.895553,2.910417 h 0.829407 l 0.24443,-0.79375 h 0.762744 l 0.244429,0.79375 H 33.3375 l -1.058333,-3.439583 h -0.396875 -0.396875 z m 8.202083,0 v 3.439583 h 0.79375 v -3.439583 z m 2.38125,0 a 1.3229166,1.7197917 0 0 0 -1.322917,1.719791 1.3229166,1.7197917 0 0 0 1.322917,1.719792 1.3229166,1.7197917 0 0 0 1.285193,-1.322917 h -0.80822 A 0.52916664,0.92604166 0 0 1 41.275,46.0375 0.52916664,0.92604166 0 0 1 40.745833,45.111458 0.52916664,0.92604166 0 0 1 41.275,44.185417 0.52916664,0.92604166 0 0 1 41.753524,44.714583 H 42.56226 A 1.3229166,1.7197917 0 0 0 41.275,43.391667 Z m 5.291667,0 a 1.3229166,1.7197917 0 0 0 -1.322917,1.719791 1.3229166,1.7197917 0 0 0 1.322917,1.719792 1.3229166,1.7197917 0 0 0 1.285193,-1.322917 H 47.04364 A 0.52916664,0.92604166 0 0 1 46.566667,46.0375 0.52916664,0.92604166 0 0 1 46.0375,45.111458 a 0.52916664,0.92604166 0 0 1 0.529167,-0.926041 0.52916664,0.92604166 0 0 1 0.478523,0.529166 h 0.808737 a 1.3229166,1.7197917 0 0 0 -1.28726,-1.322916 z m 3.042708,0 a 1.4552083,1.7197917 0 0 0 -1.455208,1.719791 1.4552083,1.7197917 0 0 0 1.455208,1.719792 1.4552083,1.7197917 0 0 0 1.455208,-1.719792 1.4552083,1.7197917 0 0 0 -1.455208,-1.719791 z m 1.719792,0 v 3.439583 h 0.529166 0.264584 1.322916 V 46.0375 h -1.322916 v -2.645833 z m 2.38125,0 v 3.439583 h 0.529166 0.264584 1.322916 V 46.0375 h -1.322916 v -2.645833 z m 2.38125,0 v 1.322916 H 55.5625 v 0.529167 h 0.529167 v 1.5875 h 0.264583 0.529167 1.322916 V 46.302083 H 56.885417 V 45.24375 h 1.322916 v -0.529167 h -1.322916 v -0.79375 h 1.322916 v -0.529166 h -1.322916 -0.396875 z m 3.704166,0 a 1.3229166,1.7197917 0 0 0 -1.322916,1.719791 1.3229166,1.7197917 0 0 0 1.322916,1.719792 1.3229166,1.7197917 0 0 0 1.285193,-1.322917 h -0.808219 a 0.52916664,0.92604166 0 0 1 -0.476974,0.529167 0.52916664,0.92604166 0 0 1 -0.529166,-0.926042 0.52916664,0.92604166 0 0 1 0.529166,-0.926041 0.52916664,0.92604166 0 0 1 0.478524,0.529166 h 0.808736 a 1.3229166,1.7197917 0 0 0 -1.28726,-1.322916 z m 1.5875,0 v 0.79375 h 0.79375 v 2.645833 h 0.79375 v -2.645833 h 0.79375 v -0.79375 z m 2.645834,0 v 3.439583 h 0.79375 v -3.439583 z m 2.513541,0 a 1.4552083,1.7197917 0 0 0 -1.455208,1.719791 1.4552083,1.7197917 0 0 0 1.455208,1.719792 1.4552083,1.7197917 0 0 0 1.455209,-1.719792 1.4552083,1.7197917 0 0 0 -1.455209,-1.719791 z m 1.719792,0 v 0.505912 2.933671 h 0.79375 V 45.220496 L 69.85,46.543412 70.022599,46.83125 H 70.64375 V 43.391667 H 69.85 v 1.5875 L 69.05625,43.65625 68.897603,43.391667 Z m -30.823958,5.16e-4 c -0.242535,0 -0.497986,0.03022 -0.738457,0.163815 -0.24047,0.133594 -0.4532,0.430981 -0.453202,0.76171 2e-6,0.330729 0.154162,0.615116 0.365353,0.826306 0.21108,0.21108 0.495283,0.363126 0.825789,0.363286 h 5.17e-4 c 0.06621,2.23e-4 0.179359,0.04707 0.265617,0.133325 0.08647,0.08647 0.13074,0.197403 0.130741,0.26355 -10e-7,0.06615 0.0143,0.03438 -0.04289,0.06615 -0.05719,0.03177 -0.199643,0.06666 -0.353983,0.06666 -0.15434,0 -0.296281,-0.03489 -0.353467,-0.06666 -0.05697,-0.03165 -0.043,-4.78e-4 -0.04289,-0.06563 v -5.2e-4 -0.131775 h -0.79375 v 0.132292 h 10e-4 c 2.21e-4,0.33052 0.210792,0.627669 0.451135,0.761193 0.2405,0.133595 0.495405,0.163815 0.73794,0.163815 0.242535,0 0.497985,-0.03022 0.738456,-0.163815 0.24047,-0.133594 0.4532,-0.430981 0.453202,-0.76171 -2e-6,-0.330729 -0.154161,-0.615116 -0.365352,-0.826306 -0.21108,-0.21108 -0.495282,-0.363126 -0.825789,-0.363286 h -5.17e-4 c -0.06621,-2.23e-4 -0.179358,-0.04707 -0.265617,-0.133325 -0.08647,-0.08647 -0.13074,-0.197403 -0.130741,-0.26355 10e-7,-0.06615 -0.0143,-0.03438 0.04289,-0.06615 0.05719,-0.03177 0.199644,-0.06666 0.353984,-0.06666 0.15434,0 0.29628,0.03489 0.353466,0.06666 0.05697,0.03165 0.043,4.8e-4 0.04289,0.06563 v 5.16e-4 0.131775 h 0.79375 v -0.132291 h -10e-4 c -2.21e-4,-0.33052 -0.210792,-0.62767 -0.451135,-0.761194 -0.240466,-0.133595 -0.495404,-0.163815 -0.737939,-0.163815 z m -2.645317,5.17e-4 c -0.242535,0 -0.497985,0.03022 -0.738456,0.163814 -0.24047,0.133594 -0.4532,0.430982 -0.453202,0.761711 2e-6,0.330729 0.154161,0.615116 0.365352,0.826306 0.21108,0.21108 0.495283,0.363126 0.825789,0.363286 h 5.17e-4 c 0.06621,2.23e-4 0.179359,0.04707 0.265617,0.133325 0.08647,0.08647 0.13074,0.197403 0.130741,0.26355 -10e-7,0.06615 0.0143,0.03438 -0.04289,0.06615 -0.05719,0.03177 -0.199644,0.06666 -0.353984,0.06666 -0.15434,0 -0.29628,-0.03489 -0.353466,-0.06666 -0.05697,-0.03165 -0.043,-4.78e-4 -0.04289,-0.06563 v -5.16e-4 -0.131775 H 33.6026 v 0.132291 h 10e-4 c 2.21e-4,0.33052 0.210792,0.62767 0.451135,0.761194 0.2405,0.133595 0.495404,0.163814 0.737939,0.163814 0.242535,0 0.497986,-0.03022 0.738457,-0.163814 0.24047,-0.133594 0.4532,-0.430981 0.453202,-0.76171 -2e-6,-0.330729 -0.154162,-0.615117 -0.365353,-0.826307 -0.21108,-0.21108 -0.495282,-0.363125 -0.825789,-0.363285 h -5.17e-4 c -0.06621,-2.23e-4 -0.179358,-0.04707 -0.265617,-0.133325 -0.08647,-0.08647 -0.13074,-0.197403 -0.130741,-0.26355 1e-6,-0.06615 -0.0143,-0.03438 0.04289,-0.06615 0.05719,-0.03177 0.199643,-0.06666 0.353983,-0.06666 0.15434,0 0.296281,0.03489 0.353467,0.06666 0.05697,0.03165 0.043,4.79e-4 0.04289,0.06563 V 44.318225 44.45 h 0.79375 v -0.132292 h -0.001 c -2.21e-4,-0.33052 -0.210792,-0.62767 -0.451135,-0.761194 C 35.290699,43.422919 35.03576,43.3927 34.793225,43.3927 Z m -13.75885,0.792717 a 0.66145831,0.92604166 0 0 1 0.661458,0.926041 0.66145831,0.92604166 0 0 1 -0.661458,0.926042 0.66145831,0.92604166 0 0 1 -0.661458,-0.926042 0.66145831,0.92604166 0 0 1 0.661458,-0.926041 z m 28.575,0 a 0.66145831,0.92604166 0 0 1 0.661458,0.926041 0.66145831,0.92604166 0 0 1 -0.661458,0.926042 0.66145831,0.92604166 0 0 1 -0.661458,-0.926042 0.66145831,0.92604166 0 0 1 0.661458,-0.926041 z m 16.933333,0 a 0.66145831,0.92604166 0 0 1 0.661459,0.926041 0.66145831,0.92604166 0 0 1 -0.661459,0.926042 0.66145831,0.92604166 0 0 1 -0.661458,-0.926042 0.66145831,0.92604166 0 0 1 0.661458,-0.926041 z m -54.504166,0.612365 0.218591,0.710551 H 11.81995 Z m 19.84375,0 0.218591,0.710551 H 31.6637 Z"
         id="path2115"
         inkscape:label="Base" /></g><g
       id="g20"
       inkscape:label="Logo"
       style="fill:#ffffff"
       transform="translate(-6.6145832,-42.06875)"><path
         id="path1541"
         style="color:#000000;display:inline;fill:#3c0059;stroke-linecap:round;stroke-linejoin:round;-inkscape-stroke:none;paint-order:stroke markers fill"
         d="M 8.4666665,43.65625 A 0.26460996,0.26460996 0 0 0 8.2010496,43.9198 v 0.505912 2.935738 A 0.26460996,0.26460996 0 0 0 8.4666665,47.625 h 0.7932332 a 0.26460996,0.26460996 0 0 0 0.2656169,-0.26355 v -0.656291 l 0.3028239,0.503846 0.1715657,0.287321 A 0.26460996,0.26460996 0 0 0 10.226766,47.625 H 10.8474 a 0.26460996,0.26460996 0 0 0 0.08992,-0.08785 0.26460996,0.26460996 0 0 0 0.176216,0.08785 h 0.827857 a 0.26460996,0.26460996 0 0 0 0.253731,-0.187585 l 0.185518,-0.605132 h 0.373104 l 0.187586,0.605132 A 0.26460996,0.26460996 0 0 0 13.19351,47.625 h 0.829923 a 0.26460996,0.26460996 0 0 0 0.179834,-0.08423 0.26460996,0.26460996 0 0 0 0.08372,0.08423 h 0.265617 0.529167 a 0.26460996,0.26460996 0 0 0 0.264066,-0.26355 v -0.93586 l 0.04651,0.06666 a 0.26460996,0.26460996 0 0 0 0.435632,0 L 15.875,46.42559 v 0.93586 a 0.26460996,0.26460996 0 0 0 0.26355,0.26355 h 0.529166 0.266134 a 0.26460996,0.26460996 0 0 0 0.26355,-0.26355 v -0.898653 c 0.07173,0.180689 0.06536,0.408873 0.177767,0.555005 0.279054,0.362772 0.687926,0.607198 1.146183,0.607198 0.742917,-0.0015 1.324678,-0.63877 1.507918,-1.46296 0.212324,0.801284 0.7445,1.46296 1.535307,1.46296 0.972677,0 1.718758,-0.91357 1.718758,-1.984375 0,-1.070805 -0.746081,-1.984375 -1.718758,-1.984375 -0.790202,0 -1.32249,0.660525 -1.535307,1.460893 -0.184187,-0.823933 -0.764839,-1.46093 -1.507918,-1.460893 -0.458257,0 -0.867129,0.244426 -1.146183,0.607198 -0.112409,0.146132 -0.106035,0.374316 -0.177767,0.555005 V 43.9198 a 0.26460996,0.26460996 0 0 0 -0.26355,-0.26355 h -0.603581 a 0.26460996,0.26460996 0 0 0 -0.217041,0.113171 L 15.61145,44.486173 15.109155,43.769421 A 0.26460996,0.26460996 0 0 0 14.890564,43.65625 h -0.603581 a 0.26460996,0.26460996 0 0 0 -0.26355,0.26355 v 2.545064 L 13.216764,43.843835 A 0.26460996,0.26460996 0 0 0 12.9651,43.65625 H 12.568225 12.1698 11.377083 A 0.26460996,0.26460996 0 0 0 11.113533,43.9198 0.26460996,0.26460996 0 0 0 10.8474,43.65625 H 10.054683 A 0.26460996,0.26460996 0 0 0 9.7890664,43.9198 v 0.630969 L 9.4883096,44.048991 9.3281126,43.784924 A 0.26460996,0.26460996 0 0 0 9.1017699,43.65625 Z m 18.5218665,0 c -0.458256,0 -0.867645,0.244426 -1.1467,0.607198 -0.279054,0.362772 -0.441316,0.847274 -0.441316,1.377177 0,0.529902 0.162262,1.014405 0.441316,1.377177 0.279055,0.362772 0.688444,0.607198 1.1467,0.607198 0.61162,-0.0012 1.056634,-0.480266 1.321883,-1.089856 v 0.826306 a 0.26460996,0.26460996 0 0 0 0.26355,0.26355 h 0.529684 0.265617 1.321883 a 0.26460996,0.26460996 0 0 0 0.08992,-0.08785 0.26460996,0.26460996 0 0 0 0.176216,0.08785 h 0.827857 a 0.26460996,0.26460996 0 0 0 0.253731,-0.187585 l 0.185518,-0.605132 h 0.373104 l 0.187586,0.605132 A 0.26460996,0.26460996 0 0 0 33.03726,47.625 h 0.829923 a 0.26460996,0.26460996 0 0 0 0.252181,-0.341581 l -0.07803,-0.253732 c 0.104792,0.169753 0.250215,0.306958 0.413928,0.397909 0.29507,0.163909 0.602618,0.195337 0.867131,0.195337 0.264512,0 0.57193,-0.03133 0.86713,-0.195337 0.25487,-0.141594 0.373712,-0.457793 0.45682,-0.771529 0.08279,0.312559 0.200487,0.627916 0.455269,0.769462 0.295071,0.163908 0.600551,0.197404 0.865064,0.197404 0.264512,0 0.571931,-0.03341 0.86713,-0.197404 0.180333,-0.100184 0.216908,-0.351022 0.324528,-0.54467 V 47.36145 A 0.26460996,0.26460996 0 0 0 39.42395,47.625 h 0.792716 a 0.26460996,0.26460996 0 0 0 0.26355,-0.26355 v -0.898653 c 0.07173,0.180689 0.06536,0.408873 0.177767,0.555005 0.279056,0.362772 0.688444,0.607198 1.1467,0.607198 0.769617,-0.0015 1.386753,-0.670827 1.545126,-1.538924 A 0.26460996,0.26460996 0 0 0 43.089876,45.773433 H 42.28114 a 0.26460996,0.26460996 0 0 0 -0.255798,0.195337 c -0.03506,0.129358 -0.0881,0.225609 -0.134876,0.277503 -0.04604,0.05108 -0.07229,0.05613 -0.08578,0.05633 -0.02101,0 -0.07769,-0.02125 -0.144694,-0.138493 -0.067,-0.117245 -0.120923,-0.308617 -0.120923,-0.523482 1e-6,-0.214864 0.05393,-0.406236 0.120923,-0.523482 0.067,-0.117245 0.123687,-0.138493 0.144694,-0.138493 0.01332,-1.9e-5 0.03893,0.0045 0.08578,0.05633 0.04684,0.0518 0.101783,0.147788 0.136943,0.277503 a 0.26460996,0.26460996 0 0 0 0.255798,0.195337 h 0.808736 a 0.26460996,0.26460996 0 0 0 0.259416,-0.312643 c -0.158573,-0.869184 -0.776096,-1.538963 -1.546676,-1.538924 -0.458256,0 -0.867644,0.244426 -1.1467,0.607198 -0.112409,0.146132 -0.106034,0.374316 -0.177767,0.555005 V 43.9198 a 0.26460996,0.26460996 0 0 0 -0.26355,-0.26355 H 39.42395 a 0.26460996,0.26460996 0 0 0 -0.265617,0.26355 v 0.480591 c -0.10697,-0.194519 -0.143346,-0.446081 -0.324528,-0.546737 -0.295057,-0.163924 -0.602618,-0.197404 -0.86713,-0.197404 -0.264513,0 -0.569863,0.03341 -0.865064,0.197404 -0.25465,0.141472 -0.374073,0.458168 -0.457336,0.771529 -0.08256,-0.313115 -0.199643,-0.629802 -0.454753,-0.771529 -0.295058,-0.163925 -0.602619,-0.195337 -0.86713,-0.195337 -0.264513,0 -0.571931,0.03133 -0.867131,0.195337 -0.328277,0.182375 -0.590142,0.550072 -0.590145,0.994254 3e-6,0.412946 0.193737,0.763731 0.443384,1.013375 0.100212,0.100212 0.276162,0.103043 0.406177,0.1757 h -0.583944 a 0.26460996,0.26460996 0 0 0 -0.26355,0.265617 v 0.130741 a 0.26460996,0.26460996 0 0 0 0.0041,0.0041 c 9e-5,0.01795 0.0032,0.03501 0.0041,0.05271 L 33.060514,43.843835 A 0.26460996,0.26460996 0 0 0 32.80885,43.65625 H 32.411975 32.01355 31.220833 a 0.26460996,0.26460996 0 0 0 -0.26355,0.26355 v 0.529166 a 0.26460996,0.26460996 0 0 0 0.26355,0.266134 h 0.273368 l -0.562756,1.825728 A 0.26460996,0.26460996 0 0 0 30.69115,46.3026 h -1.058334 v -2.3828 a 0.26460996,0.26460996 0 0 0 -0.263549,-0.26355 h -0.795301 a 0.26460996,0.26460996 0 0 0 -0.26355,0.26355 v 0.824239 c -0.265942,-0.609428 -0.709983,-1.08782 -1.321883,-1.087789 z m 20.1073,0 c -0.458256,0 -0.865578,0.244426 -1.144633,0.607198 -0.279056,0.362772 -0.443383,0.847273 -0.443384,1.377177 0,0.529903 0.164328,1.014405 0.443384,1.377177 0.279055,0.362772 0.686377,0.607198 1.144633,0.607198 0.742916,-0.0015 1.324679,-0.63877 1.507918,-1.46296 0.212323,0.801284 0.743982,1.46296 1.53479,1.46296 0.713162,0 1.190129,-0.55612 1.455209,-1.240234 V 47.36145 A 0.26460996,0.26460996 0 0 0 51.8573,47.625 h 0.529166 0.266134 1.321883 A 0.26460996,0.26460996 0 0 0 54.107291,47.492192 0.26460996,0.26460996 0 0 0 54.2401,47.625 h 0.529683 0.26355 1.321883 A 0.26460996,0.26460996 0 0 0 56.488025,47.492192 0.26460996,0.26460996 0 0 0 56.62135,47.625 h 0.26355 0.529166 1.324467 a 0.26460996,0.26460996 0 0 0 0.26355,-0.26355 v -0.529167 a 0.26460996,0.26460996 0 0 0 -0.26355,-0.266133 h -1.05885 v -0.529167 h 1.05885 a 0.26460996,0.26460996 0 0 0 0.0956,-0.0956 c 0.05396,0.395951 0.127575,0.792837 0.345715,1.07642 0.279056,0.362772 0.685859,0.607198 1.144116,0.607198 a 0.26460996,0.26460996 0 0 0 0.0021,0 c 0.769618,-0.0015 1.386752,-0.670827 1.545126,-1.538924 a 0.26460996,0.26460996 0 0 0 -0.261483,-0.312643 h -0.806669 a 0.26460996,0.26460996 0 0 0 -0.256315,0.195337 c -0.03506,0.129358 -0.08965,0.225609 -0.136426,0.277503 -0.04678,0.05189 -0.0725,0.05628 -0.08578,0.05633 -0.02101,0 -0.07769,-0.02125 -0.144694,-0.138493 -0.067,-0.117245 -0.119373,-0.308618 -0.119373,-0.523482 0,-0.214864 0.05237,-0.406236 0.119373,-0.523482 0.067,-0.117245 0.123686,-0.138493 0.144694,-0.138493 a 0.26460996,0.26460996 0 0 0 0.0016,0 c 0.01332,-1.9e-5 0.03945,0.0045 0.0863,0.05633 0.04685,0.0518 0.101267,0.147788 0.136426,0.277503 a 0.26460996,0.26460996 0 0 0 0.254248,0.195337 h 0.808219 a 0.26460996,0.26460996 0 0 0 0.262,-0.312643 C 61.8581,45.111801 61.8373,45.03108 61.81388,44.951785 a 0.26460996,0.26460996 0 0 0 0.09819,0.02687 h 0.529167 v 2.3828 A 0.26460996,0.26460996 0 0 0 62.707283,47.625 H 63.5 a 0.26460996,0.26460996 0 0 0 0.26355,-0.26355 v -2.3828 h 0.529166 v 2.3828 A 0.26460996,0.26460996 0 0 0 64.55885,47.625 h 0.792716 a 0.26460996,0.26460996 0 0 0 0.265617,-0.26355 v -0.974617 c 0.265463,0.683057 0.742751,1.238167 1.455209,1.238167 0.713161,0 1.190128,-0.556119 1.455208,-1.240234 v 0.976684 a 0.26460996,0.26460996 0 0 0 0.26355,0.26355 h 0.794783 a 0.26460996,0.26460996 0 0 0 0.26355,-0.26355 v -0.656291 l 0.302824,0.503846 0.172082,0.287321 A 0.26460996,0.26460996 0 0 0 70.552799,47.625 H 71.17395 A 0.26460996,0.26460996 0 0 0 71.4375,47.36145 V 43.9198 a 0.26460996,0.26460996 0 0 0 -0.26355,-0.26355 h -0.7953 A 0.26460996,0.26460996 0 0 0 70.1151,43.9198 v 0.635103 l -0.302824,-0.505912 -0.15813,-0.264067 A 0.26460996,0.26460996 0 0 0 69.427803,43.65625 H 68.79115 A 0.26460996,0.26460996 0 0 0 68.5276,43.9198 v 0.505912 0.470772 C 68.26252,44.21237 67.785553,43.65625 67.072392,43.65625 c -0.712457,0 -1.189745,0.555111 -1.455209,1.238167 V 43.9198 A 0.26460996,0.26460996 0 0 0 65.351566,43.65625 H 64.55885 a 0.26460996,0.26460996 0 0 0 -0.133325,0.132808 0.26460996,0.26460996 0 0 0 -0.132809,-0.132808 h -2.380733 a 0.26460996,0.26460996 0 0 0 -0.26355,0.26355 v 0.623734 c -0.281113,-0.530204 -0.761875,-0.887312 -1.32395,-0.887284 -0.458256,0 -0.865577,0.244426 -1.144633,0.607198 -0.177732,0.231052 -0.209587,0.566794 -0.28112,0.876949 A 0.26460996,0.26460996 0 0 0 58.738533,44.97865 h -1.05885 V 44.7151 h 1.05885 a 0.26460996,0.26460996 0 0 0 0.26355,-0.266134 V 43.9198 a 0.26460996,0.26460996 0 0 0 -0.26355,-0.26355 H 57.414066 57.017708 56.62135 a 0.26460996,0.26460996 0 0 0 -0.266134,0.26355 v 1.05885 h -0.26355 a 0.26460996,0.26460996 0 0 0 -0.265616,0.265617 v 0.529166 a 0.26460996,0.26460996 0 0 0 0.265616,0.26355 h 0.26355 V 46.3026 H 55.29895 V 43.9198 A 0.26460996,0.26460996 0 0 0 55.033333,43.65625 H 54.2401 a 0.26460996,0.26460996 0 0 0 -0.265617,0.26355 v 2.3828 H 52.91615 V 43.9198 A 0.26460996,0.26460996 0 0 0 52.6526,43.65625 h -0.7953 a 0.26460996,0.26460996 0 0 0 -0.26355,0.26355 v 0.976684 C 51.32867,44.21237 50.851703,43.65625 50.138541,43.65625 c -0.790203,0 -1.321973,0.660525 -1.53479,1.460893 -0.184203,-0.823901 -0.764859,-1.46093 -1.507918,-1.460893 z m -35.9823,0.792716 a 0.26460996,0.26460996 0 0 0 0.26355,0.266134 h 0.273368 l -0.536918,1.74408 z m 7.407817,0.529684 c 0.01332,-1.9e-5 0.03945,0.0045 0.0863,0.05633 0.04685,0.0518 0.101265,0.147788 0.136425,0.277503 a 0.26460996,0.26460996 0 0 0 0.255799,0.195337 h 0.808736 a 0.26460996,0.26460996 0 0 0 0.09198,-0.02739 c -0.0048,0.06027 -0.05684,0.09875 -0.05684,0.160197 0,0.06145 0.05202,0.09993 0.05684,0.160197 a 0.26460996,0.26460996 0 0 0 -0.09405,-0.02739 h -0.808736 a 0.26460996,0.26460996 0 0 0 -0.255799,0.195337 c -0.03506,0.129358 -0.08758,0.225609 -0.134358,0.277503 -0.04604,0.05108 -0.07281,0.05613 -0.0863,0.05633 -0.02101,0 -0.07718,-0.02125 -0.144177,-0.138493 -0.067,-0.117245 -0.12144,-0.308617 -0.12144,-0.523482 0,-0.214864 0.05445,-0.406236 0.12144,-0.523482 0.067,-0.117245 0.12317,-0.138493 0.144177,-0.138493 z m 3.043225,0 c 0.08256,0 0.168961,0.04441 0.251664,0.160197 0.0827,0.115784 0.144694,0.297127 0.144694,0.501778 1e-6,0.204651 -0.06199,0.385994 -0.144694,0.501778 -0.0827,0.115784 -0.169101,0.160197 -0.251664,0.160197 -0.08256,0 -0.171545,-0.04441 -0.254248,-0.160197 -0.0827,-0.115784 -0.144177,-0.297127 -0.144177,-0.501778 0,-0.204651 0.06148,-0.385994 0.144177,-0.501778 0.0827,-0.115784 0.171686,-0.160197 0.254248,-0.160197 z m 5.423958,0 c 0.01332,-1.9e-5 0.03893,0.0045 0.08578,0.05633 0.04685,0.0518 0.101267,0.147788 0.136426,0.277503 a 0.26460996,0.26460996 0 0 0 0.256315,0.195337 h 0.80822 a 0.26460996,0.26460996 0 0 0 0.03514,-0.0098 v 0.287321 a 0.26460996,0.26460996 0 0 0 -0.03721,-0.01189 H 27.46499 a 0.26460996,0.26460996 0 0 0 -0.255798,0.195337 c -0.03506,0.129358 -0.09017,0.225609 -0.136943,0.277503 -0.04603,0.05107 -0.07024,0.05613 -0.08372,0.05633 -0.02101,0 -0.07769,-0.02125 -0.144694,-0.138493 -0.067,-0.117245 -0.120923,-0.308618 -0.120923,-0.523482 0,-0.214864 0.05393,-0.406236 0.120923,-0.523482 0.067,-0.117245 0.123687,-0.138493 0.144694,-0.138493 z m 8.331792,0 c 9.79e-4,-8e-6 0.001,0 0.0021,0 0.07965,0 0.117562,0.01421 0.156062,0.02325 a 0.26460996,0.26460996 0 0 0 0.0801,0.08217 c -0.089,-0.01913 -0.140048,-0.103307 -0.236161,-0.103353 0.0016,5e-6 -0.0034,-0.002 -0.0021,-0.0021 z m 2.650484,0 c 0.07768,0.0012 0.114304,0.01424 0.152445,0.02325 a 0.26460996,0.26460996 0 0 0 0.07596,0.07803 C 38.112704,45.06176 38.064,44.978828 37.970804,44.978644 Z m 9.125024,0 c 0.01332,-1.9e-5 0.04101,0.0045 0.08785,0.05633 0.04684,0.0518 0.09972,0.147788 0.134876,0.277503 a 0.26460996,0.26460996 0 0 0 0.255798,0.195337 h 0.808219 a 0.26460996,0.26460996 0 0 0 0.09198,-0.02739 c -0.0048,0.06027 -0.05684,0.09875 -0.05684,0.160197 0,0.06145 0.05202,0.09993 0.05684,0.160197 a 0.26460996,0.26460996 0 0 0 -0.09353,-0.02739 H 47.57229 a 0.26460996,0.26460996 0 0 0 -0.253731,0.195337 c -0.03506,0.129358 -0.09016,0.225609 -0.136943,0.277503 -0.04678,0.05189 -0.0725,0.05628 -0.08578,0.05633 -0.02101,0 -0.07769,-0.02125 -0.144694,-0.138493 -0.067,-0.117245 -0.118856,-0.308617 -0.118856,-0.523482 0,-0.214864 0.05186,-0.406236 0.118856,-0.523482 0.067,-0.117245 0.123686,-0.138493 0.144694,-0.138493 z m 3.042708,0 c 0.08256,0 0.169479,0.04441 0.252181,0.160197 0.0827,0.115784 0.144178,0.297127 0.144178,0.501778 0,0.204651 -0.06148,0.385994 -0.144178,0.501778 -0.0827,0.115784 -0.169619,0.160197 -0.252181,0.160197 -0.08256,0 -0.168961,-0.04441 -0.251664,-0.160197 -0.0827,-0.115784 -0.144694,-0.297127 -0.144694,-0.501778 1e-6,-0.204651 0.06199,-0.385994 0.144694,-0.501778 0.0827,-0.115784 0.169102,-0.160197 0.251664,-0.160197 z m 16.933851,0 c 0.08256,0 0.168961,0.04441 0.251664,0.160197 0.0827,0.115784 0.144694,0.297127 0.144694,0.501778 0,0.204651 -0.06199,0.385994 -0.144694,0.501778 -0.0827,0.115784 -0.169102,0.160197 -0.251664,0.160197 -0.08256,0 -0.169478,-0.04441 -0.252181,-0.160197 -0.0827,-0.115784 -0.144178,-0.297127 -0.144178,-0.501778 0,-0.204651 0.06148,-0.385994 0.144178,-0.501778 0.0827,-0.115784 0.169618,-0.160197 0.252181,-0.160197 z m -30.439486,0.144177 c 0.0692,0.273743 0.140289,0.554735 0.321944,0.736389 0.100887,0.100886 0.277171,0.104865 0.408244,0.177767 H 36.7776 a 0.26460996,0.26460996 0 0 0 -0.12144,0.119373 c -0.06937,-0.273084 -0.13908,-0.555078 -0.320394,-0.736389 -0.100211,-0.100212 -0.276161,-0.103043 -0.406176,-0.1757 h 0.581876 a 0.26460996,0.26460996 0 0 0 0.12144,-0.12144 z m 1.945101,0.12144 h 0.580326 v 0.581876 c -0.07312,-0.130041 -0.07771,-0.306121 -0.177767,-0.406176 -0.09949,-0.09949 -0.273673,-0.103308 -0.402559,-0.1757 z m -3.492293,0.952913 c 0.089,0.01913 0.140565,0.103307 0.236678,0.103353 -6.84e-4,-2e-6 6.4e-4,0.0021 0,0.0021 -0.07965,0 -0.118081,-0.01421 -0.15658,-0.02325 a 0.26460996,0.26460996 0 0 0 -0.0801,-0.08217 z m 2.646866,0.0021 c 0.08826,0.0188 0.138852,0.101757 0.234095,0.101803 -0.07868,0 -0.114639,-0.01445 -0.153996,-0.02377 a 0.26460996,0.26460996 0 0 0 -0.0801,-0.07803 z"
         inkscape:label="Shadow" /><path
         id="path1529"
         style="color:#000000;display:inline;fill:#0000ff;stroke-linecap:round;stroke-linejoin:round;-inkscape-stroke:none;paint-order:stroke markers fill"
         inkscape:label="Outline"
         d="M 7.9374998,43.127083 A 0.26460996,0.26460996 0 0 0 7.67395,43.3927 v 0.505912 2.933671 a 0.26460996,0.26460996 0 0 0 0.2635498,0.26355 h 0.7927165 a 0.26460996,0.26460996 0 0 0 0.2661336,-0.26355 v -0.65629 l 0.3023072,0.503845 0.1720825,0.286804 a 0.26460996,0.26460996 0 0 0 0.2263428,0.129191 h 0.6211506 a 0.26460996,0.26460996 0 0 0 0.08992,-0.08785 0.26460996,0.26460996 0 0 0 0.1757,0.08785 h 0.828373 a 0.26460996,0.26460996 0 0 0 0.253731,-0.187585 L 11.851473,46.3026 h 0.373104 l 0.187585,0.605648 a 0.26460996,0.26460996 0 0 0 0.251664,0.187585 h 0.830441 a 0.26460996,0.26460996 0 0 0 0.179317,-0.08423 0.26460996,0.26460996 0 0 0 0.08423,0.08423 h 0.265617 0.529167 a 0.26460996,0.26460996 0 0 0 0.26355,-0.26355 v -0.937927 l 0.04702,0.06873 a 0.26460996,0.26460996 0 0 0 0.435633,0 l 0.04703,-0.06666 v 0.93586 a 0.26460996,0.26460996 0 0 0 0.265617,0.26355 h 0.5271 0.265616 a 0.26460996,0.26460996 0 0 0 0.26355,-0.26355 V 45.93363 c 0.07173,0.180689 0.06536,0.408357 0.177767,0.554488 0.279056,0.362772 0.688444,0.607715 1.1467,0.607715 0.742918,-0.0015 1.324679,-0.638769 1.507919,-1.462959 0.212323,0.801284 0.743982,1.462959 1.53479,1.462959 0.972678,0 1.718758,-0.913569 1.718758,-1.984375 0,-1.070805 -0.746081,-1.984375 -1.718758,-1.984375 -0.790808,0 -1.322467,0.661677 -1.53479,1.46296 -0.184152,-0.823999 -0.7648,-1.462997 -1.507919,-1.46296 -0.458256,0 -0.867644,0.244427 -1.1467,0.607198 -0.112409,0.146132 -0.106034,0.374316 -0.177767,0.555005 V 43.3927 a 0.26460996,0.26460996 0 0 0 -0.26355,-0.265617 h -0.60358 a 0.26460996,0.26460996 0 0 0 -0.216524,0.113172 l -0.502295,0.716752 -0.501779,-0.716752 A 0.26460996,0.26460996 0 0 0 14.363464,43.127083 H 13.757816 A 0.26460996,0.26460996 0 0 0 13.494267,43.3927 v 2.542997 l -0.80667,-2.621028 A 0.26460996,0.26460996 0 0 0 12.435416,43.127083 H 12.039058 11.6427 10.8474 A 0.26460996,0.26460996 0 0 0 10.58385,43.3927 0.26460996,0.26460996 0 0 0 10.318233,43.127083 H 9.5255166 A 0.26460996,0.26460996 0 0 0 9.2598997,43.3927 v 0.628902 L 8.9591429,43.519307 8.798946,43.255758 A 0.26460996,0.26460996 0 0 0 8.5720864,43.127083 Z m 18.5213502,0 c -0.458257,0 -0.867129,0.244427 -1.146183,0.607198 -0.279055,0.362772 -0.441317,0.847275 -0.441317,1.377177 0,0.529904 0.162262,1.013889 0.441317,1.37666 0.279054,0.362772 0.687926,0.607715 1.146183,0.607715 0.61162,-0.0012 1.05715,-0.480265 1.3224,-1.089856 v 0.826306 a 0.26460996,0.26460996 0 0 0 0.26355,0.26355 h 0.529166 0.266134 1.321883 a 0.26460996,0.26460996 0 0 0 0.08992,-0.08785 0.26460996,0.26460996 0 0 0 0.1757,0.08785 h 0.828373 a 0.26460996,0.26460996 0 0 0 0.253731,-0.187585 L 31.695223,46.3026 h 0.373104 l 0.187585,0.605648 a 0.26460996,0.26460996 0 0 0 0.251664,0.187585 h 0.830441 a 0.26460996,0.26460996 0 0 0 0.251664,-0.342098 L 33.5132,46.505172 c 0.105105,0.167386 0.249789,0.30293 0.412378,0.393257 0.29507,0.163909 0.603135,0.197404 0.867647,0.197404 0.264513,0 0.571931,-0.03341 0.86713,-0.197404 0.25487,-0.141593 0.373712,-0.457792 0.45682,-0.771529 0.08279,0.312559 0.200487,0.627917 0.455269,0.769462 0.29507,0.163908 0.600551,0.197404 0.865064,0.197404 0.264513,0 0.571932,-0.03341 0.867131,-0.197404 0.180332,-0.100184 0.216908,-0.351022 0.324527,-0.544669 v 0.48059 a 0.26460996,0.26460996 0 0 0 0.265617,0.26355 H 39.6875 a 0.26460996,0.26460996 0 0 0 0.26355,-0.26355 V 45.93363 c 0.07173,0.180689 0.06536,0.408357 0.177767,0.554488 0.279055,0.362772 0.688442,0.607715 1.1467,0.607715 0.769616,-0.0015 1.386235,-0.670828 1.544608,-1.538924 a 0.26460996,0.26460996 0 0 0 -0.259416,-0.312642 h -0.808736 a 0.26460996,0.26460996 0 0 0 -0.255798,0.195337 c -0.03506,0.129358 -0.0881,0.225091 -0.134876,0.276985 -0.04604,0.05108 -0.07229,0.05664 -0.08578,0.05684 -0.02101,10e-7 -0.07769,-0.02125 -0.144694,-0.138492 -0.067,-0.117246 -0.120923,-0.308618 -0.120923,-0.523483 0,-0.214863 0.05393,-0.406237 0.120923,-0.523482 0.067,-0.117246 0.123686,-0.138493 0.144694,-0.138493 0.01332,-1.9e-5 0.03893,0.0045 0.08578,0.05633 0.04684,0.0518 0.101783,0.147787 0.136943,0.277502 a 0.26460996,0.26460996 0 0 0 0.255798,0.195337 h 0.80822 a 0.26460996,0.26460996 0 0 0 0.259932,-0.310575 c -0.158574,-0.869186 -0.776096,-1.541031 -1.546675,-1.540992 -0.458258,0 -0.867645,0.244427 -1.1467,0.607198 -0.112409,0.146132 -0.106034,0.374316 -0.177767,0.555005 V 43.3927 A 0.26460996,0.26460996 0 0 0 39.6875,43.127083 H 38.894783 A 0.26460996,0.26460996 0 0 0 38.62865,43.3927 v 0.478524 c -0.10697,-0.194519 -0.14283,-0.446598 -0.324011,-0.547253 -0.295057,-0.163924 -0.600551,-0.196888 -0.865064,-0.196888 -0.264513,0 -0.571931,0.03289 -0.867131,0.196888 -0.25465,0.141471 -0.374073,0.458168 -0.457336,0.771529 -0.08264,-0.312933 -0.19975,-0.627795 -0.454753,-0.769462 -0.295054,-0.163926 -0.602618,-0.196888 -0.86713,-0.196888 -0.264513,0 -0.572448,0.03289 -0.867647,0.196888 -0.328277,0.182374 -0.587559,0.548005 -0.587561,0.992187 2e-6,0.412946 0.19167,0.764247 0.441316,1.013892 0.100212,0.100213 0.276163,0.103043 0.406177,0.1757 h -0.581877 a 0.26460996,0.26460996 0 0 0 -0.265616,0.265616 v 0.130742 a 0.26460996,0.26460996 0 0 0 0.0021,0.0021 c 1e-5,0.01604 0.0024,0.03119 0.0031,0.04702 l -0.81187,-2.638626 A 0.26460996,0.26460996 0 0 0 32.279166,43.127083 H 31.882808 31.48645 30.69115 A 0.26460996,0.26460996 0 0 0 30.4276,43.3927 v 0.5271 a 0.26460996,0.26460996 0 0 0 0.26355,0.265617 h 0.273885 l -0.562757,1.826245 A 0.26460996,0.26460996 0 0 0 30.161983,45.773433 H 29.10365 V 43.3927 A 0.26460996,0.26460996 0 0 0 28.8401,43.127083 H 28.0448 A 0.26460996,0.26460996 0 0 0 27.78125,43.3927 v 0.822172 c -0.266066,-0.608908 -0.710825,-1.08782 -1.3224,-1.087789 z m 20.1073,0 c -0.458257,0 -0.865062,0.244427 -1.144116,0.607198 -0.279055,0.362772 -0.443384,0.847275 -0.443384,1.377177 0,0.529904 0.164329,1.013889 0.443384,1.37666 0.279054,0.362772 0.685859,0.607715 1.144116,0.607715 0.742917,-0.0015 1.324678,-0.638769 1.507918,-1.462959 0.212323,0.801284 0.7445,1.462959 1.535307,1.462959 0.712456,0 1.189745,-0.55511 1.455208,-1.238167 v 0.974617 a 0.26460996,0.26460996 0 0 0 0.265617,0.26355 h 0.5271 0.265616 1.3224 a 0.26460996,0.26460996 0 0 0 0.132809,-0.130741 0.26460996,0.26460996 0 0 0 0.132808,0.130741 h 0.529167 0.26355 1.3224 a 0.26460996,0.26460996 0 0 0 0.132808,-0.130741 0.26460996,0.26460996 0 0 0 0.132808,0.130741 h 0.26355 0.529684 1.32395 a 0.26460996,0.26460996 0 0 0 0.26355,-0.26355 V 46.3026 a 0.26460996,0.26460996 0 0 0 -0.26355,-0.265617 h -1.058333 v -0.529166 h 1.058333 a 0.26460996,0.26460996 0 0 0 0.0956,-0.0956 c 0.05396,0.395952 0.127575,0.792321 0.345716,1.075903 0.279054,0.362772 0.686376,0.607715 1.144633,0.607715 a 0.26460996,0.26460996 0 0 0 0.0021,0 c 0.769617,-0.0015 1.386751,-0.671344 1.545125,-1.539441 a 0.26460996,0.26460996 0 0 0 -0.261999,-0.312125 h -0.80667 a 0.26460996,0.26460996 0 0 0 -0.255798,0.195337 c -0.03506,0.129359 -0.08965,0.225091 -0.136426,0.276985 -0.04678,0.05189 -0.07302,0.05679 -0.0863,0.05684 -0.02101,0 -0.07563,-0.02125 -0.142627,-0.138492 -0.067,-0.117246 -0.120923,-0.308619 -0.120923,-0.523483 0,-0.214863 0.05393,-0.406237 0.120923,-0.523482 0.067,-0.117246 0.121619,-0.13901 0.142627,-0.13901 a 0.26460996,0.26460996 0 0 0 0.0021,0 c 0.01332,-1.9e-5 0.03893,0.005 0.08578,0.05685 0.04685,0.0518 0.101783,0.147787 0.136942,0.277502 a 0.26460996,0.26460996 0 0 0 0.253731,0.195337 h 0.810804 a 0.26460996,0.26460996 0 0 0 0.259932,-0.310575 c -0.01533,-0.08402 -0.03628,-0.165563 -0.05994,-0.245464 a 0.26460996,0.26460996 0 0 0 0.0987,0.02635 h 0.529167 v 2.383317 a 0.26460996,0.26460996 0 0 0 0.265617,0.26355 h 0.793233 a 0.26460996,0.26460996 0 0 0 0.265617,-0.26355 v -2.383317 h 0.5271 v 2.383317 a 0.26460996,0.26460996 0 0 0 0.265616,0.26355 h 0.79317 a 0.26460996,0.26460996 0 0 0 0.265617,-0.26355 v -0.974617 c 0.265462,0.683057 0.742752,1.238167 1.455208,1.238167 0.713161,1e-6 1.189612,-0.556119 1.454691,-1.240234 v 0.976684 a 0.26460996,0.26460996 0 0 0 0.26355,0.26355 h 0.795301 a 0.26460996,0.26460996 0 0 0 0.263549,-0.26355 v -0.65629 l 0.302824,0.503845 0.171566,0.286804 a 0.26460996,0.26460996 0 0 0 0.228927,0.129191 h 0.62115 a 0.26460996,0.26460996 0 0 0 0.26355,-0.26355 V 43.3927 a 0.26460996,0.26460996 0 0 0 -0.26355,-0.265617 h -0.7953 a 0.26460996,0.26460996 0 0 0 -0.26355,0.265617 v 0.63252 l -0.302824,-0.505913 -0.15813,-0.263549 a 0.26460996,0.26460996 0 0 0 -0.226342,-0.128675 h -0.637171 a 0.26460996,0.26460996 0 0 0 -0.26355,0.265617 v 0.505912 0.468706 c -0.265079,-0.684115 -0.74153,-1.240235 -1.454691,-1.240235 -0.712456,0 -1.189746,0.555111 -1.455208,1.238168 V 43.3927 A 0.26460996,0.26460996 0 0 0 64.8224,43.127083 H 64.029166 A 0.26460996,0.26460996 0 0 0 63.896358,43.259892 0.26460996,0.26460996 0 0 0 63.76355,43.127083 H 61.382816 A 0.26460996,0.26460996 0 0 0 61.119267,43.3927 v 0.623218 c -0.281113,-0.530767 -0.762393,-0.888863 -1.324467,-0.888835 -0.458257,0 -0.865062,0.244427 -1.144117,0.607198 -0.177731,0.231052 -0.210104,0.566795 -0.281636,0.876949 A 0.26460996,0.26460996 0 0 0 58.20885,44.448966 H 57.150517 V 44.185417 H 58.20885 A 0.26460996,0.26460996 0 0 0 58.472916,43.9198 V 43.3927 A 0.26460996,0.26460996 0 0 0 58.20885,43.127083 H 56.8849 56.488541 56.091666 A 0.26460996,0.26460996 0 0 0 55.82605,43.3927 v 1.056266 H 55.5625 A 0.26460996,0.26460996 0 0 0 55.29895,44.7151 v 0.529167 a 0.26460996,0.26460996 0 0 0 0.26355,0.26355 h 0.26355 v 0.265616 H 54.769783 V 43.3927 A 0.26460996,0.26460996 0 0 0 54.50365,43.127083 H 53.710933 A 0.26460996,0.26460996 0 0 0 53.445316,43.3927 v 2.380733 h -1.05885 V 43.3927 a 0.26460996,0.26460996 0 0 0 -0.26355,-0.265617 H 51.3302 A 0.26460996,0.26460996 0 0 0 51.064583,43.3927 v 0.972551 c -0.265463,-0.683057 -0.742752,-1.238168 -1.455208,-1.238168 -0.790807,0 -1.322983,0.661677 -1.535307,1.46296 -0.184169,-0.823967 -0.764819,-1.462997 -1.507918,-1.46296 z M 10.58385,43.9198 a 0.26460996,0.26460996 0 0 0 0.26355,0.265617 h 0.273885 l -0.537435,1.744079 z m 7.408333,0.529683 c 0.01332,-1.9e-5 0.03893,0.0045 0.08578,0.05633 0.04685,0.0518 0.101783,0.147787 0.136943,0.277502 a 0.26460996,0.26460996 0 0 0 0.255798,0.195337 h 0.808736 a 0.26460996,0.26460996 0 0 0 0.09147,-0.02739 c -0.0048,0.06027 -0.05633,0.09875 -0.05633,0.160197 0,0.06145 0.05151,0.09993 0.05633,0.160197 a 0.26460996,0.26460996 0 0 0 -0.09353,-0.02739 h -0.80874 a 0.26460996,0.26460996 0 0 0 -0.255798,0.195337 c -0.03506,0.129358 -0.0881,0.225608 -0.134876,0.277502 -0.04604,0.05108 -0.07229,0.05613 -0.08578,0.05633 -0.02101,10e-7 -0.07769,-0.02125 -0.144694,-0.138492 -0.067,-0.117246 -0.120923,-0.308618 -0.120923,-0.523483 10e-7,-0.214863 0.05393,-0.406237 0.120923,-0.523482 0.067,-0.117246 0.123687,-0.138493 0.144694,-0.138493 z m 3.043225,0 c 0.08256,0 0.168963,0.04597 0.251665,0.161747 0.0827,0.115784 0.144694,0.295579 0.144694,0.500228 0,0.204651 -0.06199,0.385995 -0.144694,0.501778 -0.0827,0.115784 -0.169102,0.160197 -0.251665,0.160197 -0.08256,0 -0.171545,-0.04441 -0.254248,-0.160197 -0.0827,-0.115783 -0.144694,-0.297127 -0.144694,-0.501778 0,-0.204649 0.06199,-0.384444 0.144694,-0.500228 0.0827,-0.115783 0.171686,-0.161747 0.254248,-0.161747 z m 5.423442,0 c 0.01332,-1.9e-5 0.03945,0.0045 0.0863,0.05633 0.04685,0.0518 0.101265,0.147787 0.136425,0.277502 a 0.26460996,0.26460996 0 0 0 0.255799,0.195337 h 0.808736 a 0.26460996,0.26460996 0 0 0 0.03514,-0.0098 v 0.286805 a 0.26460996,0.26460996 0 0 0 -0.03721,-0.01137 h -0.808736 a 0.26460996,0.26460996 0 0 0 -0.255799,0.195337 c -0.03506,0.129359 -0.08758,0.225091 -0.134358,0.276985 -0.04604,0.05108 -0.07281,0.05664 -0.0863,0.05684 -0.02101,0 -0.07718,-0.02125 -0.144177,-0.138492 -0.067,-0.117246 -0.12144,-0.308619 -0.12144,-0.523483 0,-0.214863 0.05445,-0.406237 0.12144,-0.523482 0.067,-0.117246 0.12317,-0.138493 0.144177,-0.138493 z m 8.332825,0 c 4.6e-4,-10e-7 7.84e-4,0 0.0016,0 0.07965,0 0.117563,0.01422 0.156063,0.02325 a 0.26460996,0.26460996 0 0 0 0.0801,0.08217 c -0.089,-0.01913 -0.140048,-0.103824 -0.236161,-0.10387 0.0012,4e-6 -7.96e-4,-9.72e-4 -0.0016,-0.0016 z m 2.6479,0 c 0.07868,0 0.114639,0.01393 0.153996,0.02325 a 0.26460996,0.26460996 0 0 0 0.07648,0.07803 c -0.08713,-0.0183 -0.136569,-0.101241 -0.230477,-0.101286 z m 9.126575,0 c 0.01332,-1.9e-5 0.04153,0.0045 0.08837,0.05633 0.04684,0.0518 0.0992,0.147787 0.134359,0.277502 a 0.26460996,0.26460996 0 0 0 0.255798,0.195337 h 0.808737 a 0.26460996,0.26460996 0 0 0 0.09198,-0.02739 c -0.0048,0.06027 -0.05684,0.09875 -0.05684,0.160197 0,0.06145 0.05202,0.09993 0.05684,0.160197 a 0.26460996,0.26460996 0 0 0 -0.09405,-0.02739 h -0.80822 a 0.26460996,0.26460996 0 0 0 -0.254248,0.195337 c -0.03506,0.129358 -0.08965,0.225608 -0.136426,0.277502 -0.04678,0.05189 -0.07302,0.05628 -0.0863,0.05633 -0.02101,10e-7 -0.07718,-0.02125 -0.144178,-0.138492 -0.067,-0.117246 -0.119372,-0.308618 -0.119372,-0.523483 0,-0.214863 0.05237,-0.406237 0.119372,-0.523482 0.067,-0.117246 0.123171,-0.138493 0.144178,-0.138493 z m 3.043225,0 c 0.08256,0 0.169478,0.04597 0.252181,0.161747 0.0827,0.115784 0.144177,0.295579 0.144177,0.500228 0,0.204651 -0.06148,0.385995 -0.144177,0.501778 -0.0827,0.115784 -0.169618,0.160197 -0.252181,0.160197 -0.08256,0 -0.169478,-0.04441 -0.252181,-0.160197 -0.0827,-0.115783 -0.144177,-0.297127 -0.144177,-0.501778 0,-0.204649 0.06148,-0.384444 0.144177,-0.500228 0.0827,-0.115783 0.169619,-0.161747 0.252181,-0.161747 z m 16.93385,0 c 0.08256,0 0.168961,0.04597 0.251664,0.161747 0.0827,0.115784 0.144694,0.295578 0.144694,0.500228 0,0.204651 -0.06199,0.385995 -0.144694,0.501778 -0.0827,0.115784 -0.169102,0.160198 -0.251664,0.160197 -0.08256,0 -0.169479,-0.04441 -0.252181,-0.160197 -0.0827,-0.115783 -0.144694,-0.297127 -0.144694,-0.501778 0,-0.204649 0.06199,-0.384444 0.144694,-0.500228 0.0827,-0.115783 0.169618,-0.161747 0.252181,-0.161747 z M 36.103739,44.59366 c 0.06914,0.273956 0.14018,0.556693 0.321944,0.738457 0.09997,0.09997 0.274995,0.103132 0.404627,0.1757 h -0.582394 a 0.26460996,0.26460996 0 0 0 -0.120922,0.119372 C 36.057624,45.354106 35.987913,45.072112 35.8066,44.8908 35.706387,44.790588 35.530437,44.787757 35.400423,44.7151 H 35.9823 a 0.26460996,0.26460996 0 0 0 0.121439,-0.12144 z m 1.945101,0.12144 h 0.57981 v 0.581877 C 38.55553,45.166936 38.551453,44.990855 38.4514,44.8908 38.35191,44.79131 38.177726,44.787492 38.04884,44.7151 Z m -3.492293,0.952913 c 0.089,0.01913 0.140565,0.103307 0.236678,0.103353 -6.84e-4,-2e-6 6.4e-4,0.0021 0,0.0021 -0.07965,0 -0.118081,-0.01421 -0.15658,-0.02325 a 0.26460996,0.26460996 0 0 0 -0.0801,-0.08217 z m 2.648417,0.0021 c 0.08775,0.01858 0.137902,0.10124 0.232544,0.101285 -0.07868,0 -0.115156,-0.01393 -0.154513,-0.02325 a 0.26460996,0.26460996 0 0 0 -0.07803,-0.07803 z" /><path
         style="color:#000000;display:inline;fill:#000000;stroke-width:0.529167;stroke-linecap:round;stroke-linejoin:round;-inkscape-stroke:none;paint-order:stroke markers fill"
         d="m 7.9375,43.391667 v 0.505912 2.933671 H 8.73125 V 45.220496 L 9.525,46.543412 9.6975993,46.83125 H 10.31875 V 43.391667 H 9.525 v 1.5875 L 8.73125,43.65625 8.5726034,43.391667 Z m 2.910417,0 v 0.529166 h 0.630969 l -0.895553,2.910417 h 0.829407 l 0.24443,-0.79375 h 0.762744 l 0.244429,0.79375 h 0.829407 l -1.058333,-3.439583 h -0.396875 -0.396875 z m 2.910416,0 v 3.439583 h 0.264584 0.529166 v -1.779736 l 0.529167,0.759643 0.529167,-0.759643 v 1.779736 h 0.529166 0.264584 v -3.439583 h -0.604098 l -0.718819,1.028361 -0.718819,-1.028361 z m 4.233334,0 a 1.3229166,1.7197917 0 0 0 -1.322917,1.719791 1.3229166,1.7197917 0 0 0 1.322917,1.719792 1.3229166,1.7197917 0 0 0 1.285193,-1.322917 H 18.46864 A 0.52916664,0.92604166 0 0 1 17.991667,46.0375 0.52916664,0.92604166 0 0 1 17.4625,45.111458 a 0.52916664,0.92604166 0 0 1 0.529167,-0.926041 0.52916664,0.92604166 0 0 1 0.478523,0.529166 h 0.808737 a 1.3229166,1.7197917 0 0 0 -1.28726,-1.322916 z m 3.042708,0 a 1.4552083,1.7197917 0 0 0 -1.455208,1.719791 1.4552083,1.7197917 0 0 0 1.455208,1.719792 1.4552083,1.7197917 0 0 0 1.455208,-1.719792 1.4552083,1.7197917 0 0 0 -1.455208,-1.719791 z m 5.423958,0 a 1.3229166,1.7197917 0 0 0 -1.322916,1.719791 1.3229166,1.7197917 0 0 0 1.322916,1.719792 1.3229166,1.7197917 0 0 0 1.285193,-1.322917 h -0.808219 a 0.52916664,0.92604166 0 0 1 -0.476974,0.529167 0.52916664,0.92604166 0 0 1 -0.529166,-0.926042 0.52916664,0.92604166 0 0 1 0.529166,-0.926041 0.52916664,0.92604166 0 0 1 0.478524,0.529166 h 0.808736 a 1.3229166,1.7197917 0 0 0 -1.28726,-1.322916 z m 1.5875,0 V 46.83125 H 28.575 28.839583 30.1625 V 46.0375 h -1.322917 v -2.645833 z m 2.645834,0 v 0.529166 h 0.630969 l -0.895553,2.910417 h 0.829407 l 0.24443,-0.79375 h 0.762744 l 0.244429,0.79375 H 33.3375 l -1.058333,-3.439583 h -0.396875 -0.396875 z m 8.202083,0 v 3.439583 h 0.79375 v -3.439583 z m 2.38125,0 a 1.3229166,1.7197917 0 0 0 -1.322917,1.719791 1.3229166,1.7197917 0 0 0 1.322917,1.719792 1.3229166,1.7197917 0 0 0 1.285193,-1.322917 h -0.80822 A 0.52916664,0.92604166 0 0 1 41.275,46.0375 0.52916664,0.92604166 0 0 1 40.745833,45.111458 0.52916664,0.92604166 0 0 1 41.275,44.185417 0.52916664,0.92604166 0 0 1 41.753524,44.714583 H 42.56226 A 1.3229166,1.7197917 0 0 0 41.275,43.391667 Z m 5.291667,0 a 1.3229166,1.7197917 0 0 0 -1.322917,1.719791 1.3229166,1.7197917 0 0 0 1.322917,1.719792 1.3229166,1.7197917 0 0 0 1.285193,-1.322917 H 47.04364 A 0.52916664,0.92604166 0 0 1 46.566667,46.0375 0.52916664,0.92604166 0 0 1 46.0375,45.111458 a 0.52916664,0.92604166 0 0 1 0.529167,-0.926041 0.52916664,0.92604166 0 0 1 0.478523,0.529166 h 0.808737 a 1.3229166,1.7197917 0 0 0 -1.28726,-1.322916 z m 3.042708,0 a 1.4552083,1.7197917 0 0 0 -1.455208,1.719791 1.4552083,1.7197917 0 0 0 1.455208,1.719792 1.4552083,1.7197917 0 0 0 1.455208,-1.719792 1.4552083,1.7197917 0 0 0 -1.455208,-1.719791 z m 1.719792,0 v 3.439583 h 0.529166 0.264584 1.322916 V 46.0375 h -1.322916 v -2.645833 z m 2.38125,0 v 3.439583 h 0.529166 0.264584 1.322916 V 46.0375 h -1.322916 v -2.645833 z m 2.38125,0 v 1.322916 H 55.5625 v 0.529167 h 0.529167 v 1.5875 h 0.264583 0.529167 1.322916 V 46.302083 H 56.885417 V 45.24375 h 1.322916 v -0.529167 h -1.322916 v -0.79375 h 1.322916 v -0.529166 h -1.322916 -0.396875 z m 3.704166,0 a 1.3229166,1.7197917 0 0 0 -1.322916,1.719791 1.3229166,1.7197917 0 0 0 1.322916,1.719792 1.3229166,1.7197917 0 0 0 1.285193,-1.322917 h -0.808219 a 0.52916664,0.92604166 0 0 1 -0.476974,0.529167 0.52916664,0.92604166 0 0 1 -0.529166,-0.926042 0.52916664,0.92604166 0 0 1 0.529166,-0.926041 0.52916664,0.92604166 0 0 1 0.478524,0.529166 h 0.808736 a 1.3229166,1.7197917 0 0 0 -1.28726,-1.322916 z m 1.5875,0 v 0.79375 h 0.79375 v 2.645833 h 0.79375 v -2.645833 h 0.79375 v -0.79375 z m 2.645834,0 v 3.439583 h 0.79375 v -3.439583 z m 2.513541,0 a 1.4552083,1.7197917 0 0 0 -1.455208,1.719791 1.4552083,1.7197917 0 0 0 1.455208,1.719792 1.4552083,1.7197917 0 0 0 1.455209,-1.719792 1.4552083,1.7197917 0 0 0 -1.455209,-1.719791 z m 1.719792,0 v 0.505912 2.933671 h 0.79375 V 45.220496 L 69.85,46.543412 70.022599,46.83125 H 70.64375 V 43.391667 H 69.85 v 1.5875 L 69.05625,43.65625 68.897603,43.391667 Z m -30.823958,5.16e-4 c -0.242535,0 -0.497986,0.03022 -0.738457,0.163815 -0.24047,0.133594 -0.4532,0.430981 -0.453202,0.76171 2e-6,0.330729 0.154162,0.615116 0.365353,0.826306 0.21108,0.21108 0.495283,0.363126 0.825789,0.363286 h 5.17e-4 c 0.06621,2.23e-4 0.179359,0.04707 0.265617,0.133325 0.08647,0.08647 0.13074,0.197403 0.130741,0.26355 -10e-7,0.06615 0.0143,0.03438 -0.04289,0.06615 -0.05719,0.03177 -0.199643,0.06666 -0.353983,0.06666 -0.15434,0 -0.296281,-0.03489 -0.353467,-0.06666 -0.05697,-0.03165 -0.043,-4.78e-4 -0.04289,-0.06563 v -5.2e-4 -0.131775 h -0.79375 v 0.132292 h 10e-4 c 2.21e-4,0.33052 0.210792,0.627669 0.451135,0.761193 0.2405,0.133595 0.495405,0.163815 0.73794,0.163815 0.242535,0 0.497985,-0.03022 0.738456,-0.163815 0.24047,-0.133594 0.4532,-0.430981 0.453202,-0.76171 -2e-6,-0.330729 -0.154161,-0.615116 -0.365352,-0.826306 -0.21108,-0.21108 -0.495282,-0.363126 -0.825789,-0.363286 h -5.17e-4 c -0.06621,-2.23e-4 -0.179358,-0.04707 -0.265617,-0.133325 -0.08647,-0.08647 -0.13074,-0.197403 -0.130741,-0.26355 10e-7,-0.06615 -0.0143,-0.03438 0.04289,-0.06615 0.05719,-0.03177 0.199644,-0.06666 0.353984,-0.06666 0.15434,0 0.29628,0.03489 0.353466,0.06666 0.05697,0.03165 0.043,4.8e-4 0.04289,0.06563 v 5.16e-4 0.131775 h 0.79375 v -0.132291 h -10e-4 c -2.21e-4,-0.33052 -0.210792,-0.62767 -0.451135,-0.761194 -0.240466,-0.133595 -0.495404,-0.163815 -0.737939,-0.163815 z m -2.645317,5.17e-4 c -0.242535,0 -0.497985,0.03022 -0.738456,0.163814 -0.24047,0.133594 -0.4532,0.430982 -0.453202,0.761711 2e-6,0.330729 0.154161,0.615116 0.365352,0.826306 0.21108,0.21108 0.495283,0.363126 0.825789,0.363286 h 5.17e-4 c 0.06621,2.23e-4 0.179359,0.04707 0.265617,0.133325 0.08647,0.08647 0.13074,0.197403 0.130741,0.26355 -10e-7,0.06615 0.0143,0.03438 -0.04289,0.06615 -0.05719,0.03177 -0.199644,0.06666 -0.353984,0.06666 -0.15434,0 -0.29628,-0.03489 -0.353466,-0.06666 -0.05697,-0.03165 -0.043,-4.78e-4 -0.04289,-0.06563 v -5.16e-4 -0.131775 H 33.6026 v 0.132291 h 10e-4 c 2.21e-4,0.33052 0.210792,0.62767 0.451135,0.761194 0.2405,0.133595 0.495404,0.163814 0.737939,0.163814 0.242535,0 0.497986,-0.03022 0.738457,-0.163814 0.24047,-0.133594 0.4532,-0.430981 0.453202,-0.76171 -2e-6,-0.330729 -0.154162,-0.615117 -0.365353,-0.826307 -0.21108,-0.21108 -0.495282,-0.363125 -0.825789,-0.363285 h -5.17e-4 c -0.06621,-2.23e-4 -0.179358,-0.04707 -0.265617,-0.133325 -0.08647,-0.08647 -0.13074,-0.197403 -0.130741,-0.26355 1e-6,-0.06615 -0.0143,-0.03438 0.04289,-0.06615 0.05719,-0.03177 0.199643,-0.06666 0.353983,-0.06666 0.15434,0 0.296281,0.03489 0.353467,0.06666 0.05697,0.03165 0.043,4.79e-4 0.04289,0.06563 V 44.318225 44.45 h 0.79375 v -0.132292 h -0.001 c -2.21e-4,-0.33052 -0.210792,-0.62767 -0.451135,-0.761194 C 35.290699,43.422919 35.03576,43.3927 34.793225,43.3927 Z m -13.75885,0.792717 a 0.66145831,0.92604166 0 0 1 0.661458,0.926041 0.66145831,0.92604166 0 0 1 -0.661458,0.926042 0.66145831,0.92604166 0 0 1 -0.661458,-0.926042 0.66145831,0.92604166 0 0 1 0.661458,-0.926041 z m 28.575,0 a 0.66145831,0.92604166 0 0 1 0.661458,0.926041 0.66145831,0.92604166 0 0 1 -0.661458,0.926042 0.66145831,0.92604166 0 0 1 -0.661458,-0.926042 0.66145831,0.92604166 0 0 1 0.661458,-0.926041 z m 16.933333,0 a 0.66145831,0.92604166 0 0 1 0.661459,0.926041 0.66145831,0.92604166 0 0 1 -0.661459,0.926042 0.66145831,0.92604166 0 0 1 -0.661458,-0.926042 0.66145831,0.92604166 0 0 1 0.661458,-0.926041 z m -54.504166,0.612365 0.218591,0.710551 H 11.81995 Z m 19.84375,0 0.218591,0.710551 H 31.6637 Z"
         id="path1574"
         inkscape:label="Base" /></g></g></svg>
