<?xml version="1.0" encoding="UTF-8" standalone="no"?>
<!-- Created with Inkscape (http://www.inkscape.org/) -->

<svg
   width="71.70208mm"
   height="7.4083328mm"
   viewBox="0 0 71.70208 7.408333"
   version="1.1"
   id="svg1"
   xml:space="preserve"
   inkscape:version="1.2.2 (b0a8486541, 2022-12-01)"
   sodipodi:docname="logo.svg"
   inkscape:export-filename="logo.png"
   inkscape:export-xdpi="96"
   inkscape:export-ydpi="96"
   xmlns:inkscape="http://www.inkscape.org/namespaces/inkscape"
   xmlns:sodipodi="http://sodipodi.sourceforge.net/DTD/sodipodi-0.dtd"
   xmlns="http://www.w3.org/2000/svg"
   xmlns:svg="http://www.w3.org/2000/svg"><sodipodi:namedview
     id="namedview1"
     pagecolor="#ffffff"
     bordercolor="#000000"
     borderopacity="0.25"
     inkscape:showpageshadow="2"
     inkscape:pageopacity="0.0"
     inkscape:pagecheckerboard="0"
     inkscape:deskcolor="#d1d1d1"
     inkscape:document-units="mm"
     inkscape:zoom="3.5052894"
     inkscape:cx="150.6295"
     inkscape:cy="9.1290608"
     inkscape:window-width="1920"
     inkscape:window-height="1008"
     inkscape:window-x="0"
     inkscape:window-y="0"
     inkscape:window-maximized="1"
     inkscape:current-layer="layer1"
     showgrid="true"
     showguides="false"><inkscape:grid
       id="grid1"
       units="px"
       originx="-1.0583333"
       originy="-1.0583333"
       spacingx="0.13229166"
       spacingy="0.13229166"
       empcolor="#0099e5"
       empopacity="0.30196078"
       color="#0099e5"
       opacity="0.14901961"
       empspacing="2"
       enabled="true"
       visible="true" /><sodipodi:guide
       position="10.715624,-34.185026"
       orientation="0,-1"
       id="guide18"
       inkscape:locked="false" /><sodipodi:guide
       position="10.980207,-30.745442"
       orientation="0,-1"
       id="guide19"
       inkscape:locked="false" /><sodipodi:guide
       position="10.980207,-32.200651"
       orientation="1,0"
       id="guide20"
       inkscape:locked="false" /><sodipodi:guide
       position="9.5249991,-32.673594"
       orientation="1,0"
       id="guide21"
       inkscape:locked="false" /><sodipodi:guide
       position="12.435415,-33.391276"
       orientation="1,0"
       id="guide22"
       inkscape:locked="false" /><sodipodi:guide
       position="8.0697909,-31.671484"
       orientation="0.85752666,0.51443953"
       id="guide34"
       inkscape:locked="false"
       inkscape:label=""
       inkscape:color="rgb(0,134,229)" /><sodipodi:guide
       position="8.3562459,-33.713362"
       orientation="0.85752666,0.51443953"
       id="guide35"
       inkscape:label=""
       inkscape:locked="false"
       inkscape:color="rgb(0,134,229)" /></sodipodi:namedview><defs
     id="defs1" /><g
     inkscape:label="Namco Classic Collection"
     inkscape:groupmode="layer"
     id="layer1"
     style="fill:#ffffff"
     transform="translate(-1.0583333,-1.0583333)"><g
       id="g18"
       inkscape:label="Dark"
       transform="translate(1.3229165,-39.146706)"><path
         id="path18"
         style="fill:#240038;fill-opacity:1;stroke:#240038;stroke-width:0.529167;stroke-linecap:round;stroke-linejoin:round;stroke-dasharray:none;stroke-opacity:1;paint-order:stroke markers fill"
         inkscape:label="Shadow"
         d="m 8.4666663,43.920833 v 0.505912 2.933671 h 0.79375 v -1.610754 l 0.7937497,1.322916 0.1726,0.287838 h 0.62115 v -3.439583 h -0.79375 v 1.5875 L 9.2604163,44.185416 9.1017697,43.920833 Z m 2.9104167,0 v 0.529166 h 0.630969 l -0.895553,2.910417 h 0.829407 l 0.24443,-0.79375 h 0.762744 l 0.244429,0.79375 h 0.829407 l -1.058333,-3.439583 h -0.396875 -0.396875 z m 2.910416,0 v 3.439583 h 0.264584 0.529166 V 45.58068 l 0.529167,0.759643 0.529167,-0.759643 v 1.779736 h 0.529166 0.264584 v -3.439583 h -0.604098 l -0.718819,1.028361 -0.718819,-1.028361 z m 4.233334,0 a 1.3229166,1.7197917 0 0 0 -1.322917,1.719791 1.3229166,1.7197917 0 0 0 1.322917,1.719792 1.3229166,1.7197917 0 0 0 1.285193,-1.322917 h -0.80822 a 0.52916664,0.92604166 0 0 1 -0.476973,0.529167 0.52916664,0.92604166 0 0 1 -0.529167,-0.926042 0.52916664,0.92604166 0 0 1 0.529167,-0.926041 0.52916664,0.92604166 0 0 1 0.478523,0.529166 h 0.808737 a 1.3229166,1.7197917 0 0 0 -1.28726,-1.322916 z m 3.042708,0 a 1.4552083,1.7197917 0 0 0 -1.455208,1.719791 1.4552083,1.7197917 0 0 0 1.455208,1.719792 1.4552083,1.7197917 0 0 0 1.455208,-1.719792 1.4552083,1.7197917 0 0 0 -1.455208,-1.719791 z m 5.423958,0 a 1.3229166,1.7197917 0 0 0 -1.322916,1.719791 1.3229166,1.7197917 0 0 0 1.322916,1.719792 1.3229166,1.7197917 0 0 0 1.285193,-1.322917 h -0.808219 a 0.52916664,0.92604166 0 0 1 -0.476974,0.529167 0.52916664,0.92604166 0 0 1 -0.529166,-0.926042 0.52916664,0.92604166 0 0 1 0.529166,-0.926041 0.52916664,0.92604166 0 0 1 0.478524,0.529166 h 0.808736 a 1.3229166,1.7197917 0 0 0 -1.28726,-1.322916 z m 1.5875,0 v 3.439583 h 0.529167 0.264583 1.322917 v -0.79375 h -1.322917 v -2.645833 z m 2.645834,0 v 0.529166 h 0.630969 l -0.895553,2.910417 h 0.829407 l 0.24443,-0.79375 h 0.762744 l 0.244429,0.79375 h 0.829407 l -1.058333,-3.439583 h -0.396875 -0.396875 z m 8.202083,0 v 3.439583 h 0.79375 v -3.439583 z m 2.38125,0 a 1.3229166,1.7197917 0 0 0 -1.322917,1.719791 1.3229166,1.7197917 0 0 0 1.322917,1.719792 1.3229166,1.7197917 0 0 0 1.285193,-1.322917 h -0.80822 a 0.52916664,0.92604166 0 0 1 -0.476973,0.529167 0.52916664,0.92604166 0 0 1 -0.529167,-0.926042 0.52916664,0.92604166 0 0 1 0.529167,-0.926041 0.52916664,0.92604166 0 0 1 0.478524,0.529166 h 0.808736 a 1.3229166,1.7197917 0 0 0 -1.28726,-1.322916 z m 5.291667,0 a 1.3229166,1.7197917 0 0 0 -1.322917,1.719791 1.3229166,1.7197917 0 0 0 1.322917,1.719792 1.3229166,1.7197917 0 0 0 1.285193,-1.322917 h -0.80822 a 0.52916664,0.92604166 0 0 1 -0.476973,0.529167 0.52916664,0.92604166 0 0 1 -0.529167,-0.926042 0.52916664,0.92604166 0 0 1 0.529167,-0.926041 0.52916664,0.92604166 0 0 1 0.478523,0.529166 h 0.808737 a 1.3229166,1.7197917 0 0 0 -1.28726,-1.322916 z m 3.042708,0 a 1.4552083,1.7197917 0 0 0 -1.455208,1.719791 1.4552083,1.7197917 0 0 0 1.455208,1.719792 1.4552083,1.7197917 0 0 0 1.455208,-1.719792 1.4552083,1.7197917 0 0 0 -1.455208,-1.719791 z m 1.719792,0 v 3.439583 h 0.529166 0.264584 1.322916 v -0.79375 h -1.322916 v -2.645833 z m 2.38125,0 v 3.439583 h 0.529166 0.264584 1.322916 v -0.79375 h -1.322916 v -2.645833 z m 2.38125,0 v 1.322916 h -0.529167 v 0.529167 h 0.529167 v 1.5875 h 0.264583 0.529167 1.322916 v -0.529167 h -1.322916 v -1.058333 h 1.322916 v -0.529167 h -1.322916 v -0.79375 h 1.322916 v -0.529166 h -1.322916 -0.396875 z m 3.704166,0 a 1.3229166,1.7197917 0 0 0 -1.322916,1.719791 1.3229166,1.7197917 0 0 0 1.322916,1.719792 1.3229166,1.7197917 0 0 0 1.285193,-1.322917 h -0.808219 a 0.52916664,0.92604166 0 0 1 -0.476974,0.529167 0.52916664,0.92604166 0 0 1 -0.529166,-0.926042 0.52916664,0.92604166 0 0 1 0.529166,-0.926041 0.52916664,0.92604166 0 0 1 0.478524,0.529166 h 0.808736 a 1.3229166,1.7197917 0 0 0 -1.28726,-1.322916 z m 1.5875,0 v 0.79375 h 0.79375 v 2.645833 h 0.79375 v -2.645833 h 0.79375 v -0.79375 z m 2.645834,0 v 3.439583 h 0.79375 v -3.439583 z m 2.513541,0 a 1.4552083,1.7197917 0 0 0 -1.455208,1.719791 1.4552083,1.7197917 0 0 0 1.455208,1.719792 1.4552083,1.7197917 0 0 0 1.455209,-1.719792 1.4552083,1.7197917 0 0 0 -1.455209,-1.719791 z m 1.719792,0 v 0.505912 2.933671 h 0.79375 v -1.610754 l 0.79375,1.322916 0.172599,0.287838 h 0.621151 v -3.439583 h -0.79375 v 1.5875 l -0.79375,-1.322917 -0.158647,-0.264583 z m -30.823958,5.16e-4 c -0.242535,0 -0.497986,0.03022 -0.738457,0.163815 -0.24047,0.133594 -0.4532,0.430981 -0.453202,0.76171 2e-6,0.330729 0.154162,0.615116 0.365353,0.826306 0.21108,0.21108 0.495283,0.363126 0.825789,0.363286 h 5.17e-4 c 0.06621,2.23e-4 0.179359,0.04707 0.265617,0.133325 0.08647,0.08647 0.13074,0.197403 0.130741,0.26355 -1e-6,0.06615 0.0143,0.03438 -0.04289,0.06615 -0.05719,0.03177 -0.199643,0.06666 -0.353983,0.06666 -0.15434,0 -0.296281,-0.03489 -0.353467,-0.06666 -0.05697,-0.03165 -0.043,-4.78e-4 -0.04289,-0.06563 v -5.17e-4 -0.131775 h -0.79375 v 0.132292 h 0.001 c 2.21e-4,0.33052 0.210792,0.627669 0.451135,0.761193 0.2405,0.133595 0.495405,0.163815 0.73794,0.163815 0.242535,0 0.497985,-0.03022 0.738456,-0.163815 0.24047,-0.133594 0.4532,-0.430981 0.453202,-0.76171 -2e-6,-0.330729 -0.154161,-0.615116 -0.365352,-0.826306 -0.21108,-0.21108 -0.495282,-0.363126 -0.825789,-0.363286 h -5.17e-4 c -0.06621,-2.23e-4 -0.179358,-0.04707 -0.265617,-0.133325 -0.08647,-0.08647 -0.13074,-0.197403 -0.130741,-0.26355 1e-6,-0.06615 -0.0143,-0.03438 0.04289,-0.06615 0.05719,-0.03177 0.199644,-0.06666 0.353984,-0.06666 0.15434,0 0.29628,0.03489 0.353466,0.06666 0.05697,0.03165 0.043,4.8e-4 0.04289,0.06563 v 5.16e-4 0.131775 h 0.79375 v -0.132291 h -0.001 c -2.21e-4,-0.33052 -0.210792,-0.62767 -0.451135,-0.761194 -0.240466,-0.133595 -0.495404,-0.163815 -0.737939,-0.163815 z m -2.645317,5.17e-4 c -0.242535,0 -0.497985,0.03022 -0.738456,0.163814 -0.24047,0.133594 -0.4532,0.430982 -0.453202,0.761711 2e-6,0.330729 0.154161,0.615116 0.365352,0.826306 0.21108,0.21108 0.495283,0.363126 0.825789,0.363286 h 5.17e-4 c 0.06621,2.23e-4 0.179359,0.04707 0.265617,0.133325 0.08647,0.08647 0.13074,0.197403 0.130741,0.26355 -1e-6,0.06615 0.0143,0.03437 -0.04289,0.06614 -0.05719,0.03177 -0.199644,0.06666 -0.353984,0.06666 -0.15434,0 -0.29628,-0.03489 -0.353466,-0.06666 -0.05697,-0.03165 -0.043,-4.78e-4 -0.04289,-0.06563 v -5.16e-4 -0.131775 h -0.79375 v 0.132291 h 0.001 c 2.21e-4,0.33052 0.210792,0.62767 0.451135,0.761194 0.2405,0.133595 0.495404,0.163814 0.737939,0.163814 0.242535,0 0.497986,-0.03022 0.738457,-0.163814 0.24047,-0.133594 0.4532,-0.430981 0.453202,-0.76171 -2e-6,-0.330729 -0.154162,-0.615117 -0.365353,-0.826307 -0.21108,-0.21108 -0.495282,-0.363125 -0.825789,-0.363285 h -5.17e-4 c -0.06621,-2.23e-4 -0.179358,-0.04707 -0.265617,-0.133325 -0.08647,-0.08647 -0.13074,-0.197403 -0.130741,-0.26355 10e-7,-0.06615 -0.0143,-0.03438 0.04289,-0.06615 0.05719,-0.03177 0.199643,-0.06666 0.353983,-0.06666 0.15434,0 0.296281,0.03489 0.353467,0.06666 0.05697,0.03165 0.043,4.79e-4 0.04289,0.06563 v 5.17e-4 0.131775 h 0.79375 v -0.132292 h -10e-4 c -2.21e-4,-0.33052 -0.210792,-0.62767 -0.451135,-0.761194 -0.240466,-0.133595 -0.495405,-0.163814 -0.73794,-0.163814 z m -13.75885,0.792717 a 0.66145831,0.92604166 0 0 1 0.661458,0.926041 0.66145831,0.92604166 0 0 1 -0.661458,0.926042 0.66145831,0.92604166 0 0 1 -0.661458,-0.926042 0.66145831,0.92604166 0 0 1 0.661458,-0.926041 z m 28.575,0 a 0.66145831,0.92604166 0 0 1 0.661458,0.926041 0.66145831,0.92604166 0 0 1 -0.661458,0.926042 0.66145831,0.92604166 0 0 1 -0.661458,-0.926042 0.66145831,0.92604166 0 0 1 0.661458,-0.926041 z m 16.933333,0 a 0.66145831,0.92604166 0 0 1 0.661459,0.926041 0.66145831,0.92604166 0 0 1 -0.661459,0.926042 0.66145831,0.92604166 0 0 1 -0.661458,-0.926042 0.66145831,0.92604166 0 0 1 0.661458,-0.926041 z m -54.504166,0.612365 0.218591,0.710551 h -0.437183 z m 19.84375,0 0.218591,0.710551 h -0.437183 z" /><path
         id="rect32"
         style="fill:#000000;fill-opacity:1;stroke:#000092;stroke-width:0.529167;stroke-linecap:round;stroke-linejoin:round;stroke-dasharray:none;stroke-opacity:1;paint-order:stroke markers fill"
         inkscape:label="Base"
         d="m 7.9375,43.391667 v 0.505912 2.933671 H 8.73125 V 45.220496 L 9.525,46.543412 9.6975993,46.83125 H 10.31875 V 43.391667 H 9.525 v 1.5875 L 8.73125,43.65625 8.5726034,43.391667 Z m 2.910417,0 v 0.529166 h 0.630969 l -0.895553,2.910417 h 0.829407 l 0.24443,-0.79375 h 0.762744 l 0.244429,0.79375 h 0.829407 l -1.058333,-3.439583 h -0.396875 -0.396875 z m 2.910416,0 v 3.439583 h 0.264584 0.529166 v -1.779736 l 0.529167,0.759643 0.529167,-0.759643 v 1.779736 h 0.529166 0.264584 v -3.439583 h -0.604098 l -0.718819,1.028361 -0.718819,-1.028361 z m 4.233334,0 a 1.3229166,1.7197917 0 0 0 -1.322917,1.719791 1.3229166,1.7197917 0 0 0 1.322917,1.719792 1.3229166,1.7197917 0 0 0 1.285193,-1.322917 H 18.46864 A 0.52916664,0.92604166 0 0 1 17.991667,46.0375 0.52916664,0.92604166 0 0 1 17.4625,45.111458 a 0.52916664,0.92604166 0 0 1 0.529167,-0.926041 0.52916664,0.92604166 0 0 1 0.478523,0.529166 h 0.808737 a 1.3229166,1.7197917 0 0 0 -1.28726,-1.322916 z m 3.042708,0 a 1.4552083,1.7197917 0 0 0 -1.455208,1.719791 1.4552083,1.7197917 0 0 0 1.455208,1.719792 1.4552083,1.7197917 0 0 0 1.455208,-1.719792 1.4552083,1.7197917 0 0 0 -1.455208,-1.719791 z m 5.423958,0 a 1.3229166,1.7197917 0 0 0 -1.322916,1.719791 1.3229166,1.7197917 0 0 0 1.322916,1.719792 1.3229166,1.7197917 0 0 0 1.285193,-1.322917 h -0.808219 a 0.52916664,0.92604166 0 0 1 -0.476974,0.529167 0.52916664,0.92604166 0 0 1 -0.529166,-0.926042 0.52916664,0.92604166 0 0 1 0.529166,-0.926041 0.52916664,0.92604166 0 0 1 0.478524,0.529166 h 0.808736 a 1.3229166,1.7197917 0 0 0 -1.28726,-1.322916 z m 1.5875,0 V 46.83125 H 28.575 28.839583 30.1625 V 46.0375 h -1.322917 v -2.645833 z m 2.645834,0 v 0.529166 h 0.630969 l -0.895553,2.910417 h 0.829407 l 0.24443,-0.79375 h 0.762744 l 0.244429,0.79375 H 33.3375 l -1.058333,-3.439583 h -0.396875 -0.396875 z m 8.202083,0 v 3.439583 h 0.79375 v -3.439583 z m 2.38125,0 a 1.3229166,1.7197917 0 0 0 -1.322917,1.719791 1.3229166,1.7197917 0 0 0 1.322917,1.719792 1.3229166,1.7197917 0 0 0 1.285193,-1.322917 h -0.80822 A 0.52916664,0.92604166 0 0 1 41.275,46.0375 0.52916664,0.92604166 0 0 1 40.745833,45.111458 0.52916664,0.92604166 0 0 1 41.275,44.185417 0.52916664,0.92604166 0 0 1 41.753524,44.714583 H 42.56226 A 1.3229166,1.7197917 0 0 0 41.275,43.391667 Z m 5.291667,0 a 1.3229166,1.7197917 0 0 0 -1.322917,1.719791 1.3229166,1.7197917 0 0 0 1.322917,1.719792 1.3229166,1.7197917 0 0 0 1.285193,-1.322917 H 47.04364 A 0.52916664,0.92604166 0 0 1 46.566667,46.0375 0.52916664,0.92604166 0 0 1 46.0375,45.111458 a 0.52916664,0.92604166 0 0 1 0.529167,-0.926041 0.52916664,0.92604166 0 0 1 0.478523,0.529166 h 0.808737 a 1.3229166,1.7197917 0 0 0 -1.28726,-1.322916 z m 3.042708,0 a 1.4552083,1.7197917 0 0 0 -1.455208,1.719791 1.4552083,1.7197917 0 0 0 1.455208,1.719792 1.4552083,1.7197917 0 0 0 1.455208,-1.719792 1.4552083,1.7197917 0 0 0 -1.455208,-1.719791 z m 1.719792,0 v 3.439583 h 0.529166 0.264584 1.322916 V 46.0375 h -1.322916 v -2.645833 z m 2.38125,0 v 3.439583 h 0.529166 0.264584 1.322916 V 46.0375 h -1.322916 v -2.645833 z m 2.38125,0 v 1.322916 H 55.5625 v 0.529167 h 0.529167 v 1.5875 h 0.264583 0.529167 1.322916 V 46.302083 H 56.885417 V 45.24375 h 1.322916 v -0.529167 h -1.322916 v -0.79375 h 1.322916 v -0.529166 h -1.322916 -0.396875 z m 3.704166,0 a 1.3229166,1.7197917 0 0 0 -1.322916,1.719791 1.3229166,1.7197917 0 0 0 1.322916,1.719792 1.3229166,1.7197917 0 0 0 1.285193,-1.322917 h -0.808219 a 0.52916664,0.92604166 0 0 1 -0.476974,0.529167 0.52916664,0.92604166 0 0 1 -0.529166,-0.926042 0.52916664,0.92604166 0 0 1 0.529166,-0.926041 0.52916664,0.92604166 0 0 1 0.478524,0.529166 h 0.808736 a 1.3229166,1.7197917 0 0 0 -1.28726,-1.322916 z m 1.5875,0 v 0.79375 h 0.79375 v 2.645833 h 0.79375 v -2.645833 h 0.79375 v -0.79375 z m 2.645834,0 v 3.439583 h 0.79375 v -3.439583 z m 2.513541,0 a 1.4552083,1.7197917 0 0 0 -1.455208,1.719791 1.4552083,1.7197917 0 0 0 1.455208,1.719792 1.4552083,1.7197917 0 0 0 1.455209,-1.719792 1.4552083,1.7197917 0 0 0 -1.455209,-1.719791 z m 1.719792,0 v 0.505912 2.933671 h 0.79375 V 45.220496 L 69.85,46.543412 70.022599,46.83125 H 70.64375 V 43.391667 H 69.85 v 1.5875 L 69.05625,43.65625 68.897603,43.391667 Z m -30.823958,5.16e-4 c -0.242535,0 -0.497986,0.03022 -0.738457,0.163815 -0.24047,0.133594 -0.4532,0.430981 -0.453202,0.76171 2e-6,0.330729 0.154162,0.615116 0.365353,0.826306 0.21108,0.21108 0.495283,0.363126 0.825789,0.363286 h 5.17e-4 c 0.06621,2.23e-4 0.179359,0.04707 0.265617,0.133325 0.08647,0.08647 0.13074,0.197403 0.130741,0.26355 -10e-7,0.06615 0.0143,0.03438 -0.04289,0.06615 -0.05719,0.03177 -0.199643,0.06666 -0.353983,0.06666 -0.15434,0 -0.296281,-0.03489 -0.353467,-0.06666 -0.05697,-0.03165 -0.043,-4.78e-4 -0.04289,-0.06563 v -5.2e-4 -0.131775 h -0.79375 v 0.132292 h 10e-4 c 2.21e-4,0.33052 0.210792,0.627669 0.451135,0.761193 0.2405,0.133595 0.495405,0.163815 0.73794,0.163815 0.242535,0 0.497985,-0.03022 0.738456,-0.163815 0.24047,-0.133594 0.4532,-0.430981 0.453202,-0.76171 -2e-6,-0.330729 -0.154161,-0.615116 -0.365352,-0.826306 -0.21108,-0.21108 -0.495282,-0.363126 -0.825789,-0.363286 h -5.17e-4 c -0.06621,-2.23e-4 -0.179358,-0.04707 -0.265617,-0.133325 -0.08647,-0.08647 -0.13074,-0.197403 -0.130741,-0.26355 10e-7,-0.06615 -0.0143,-0.03438 0.04289,-0.06615 0.05719,-0.03177 0.199644,-0.06666 0.353984,-0.06666 0.15434,0 0.29628,0.03489 0.353466,0.06666 0.05697,0.03165 0.043,4.8e-4 0.04289,0.06563 v 5.16e-4 0.131775 h 0.79375 v -0.132291 h -10e-4 c -2.21e-4,-0.33052 -0.210792,-0.62767 -0.451135,-0.761194 -0.240466,-0.133595 -0.495404,-0.163815 -0.737939,-0.163815 z m -2.645317,5.17e-4 c -0.242535,0 -0.497985,0.03022 -0.738456,0.163814 -0.24047,0.133594 -0.4532,0.430982 -0.453202,0.761711 2e-6,0.330729 0.154161,0.615116 0.365352,0.826306 0.21108,0.21108 0.495283,0.363126 0.825789,0.363286 h 5.17e-4 c 0.06621,2.23e-4 0.179359,0.04707 0.265617,0.133325 0.08647,0.08647 0.13074,0.197403 0.130741,0.26355 -10e-7,0.06615 0.0143,0.03438 -0.04289,0.06615 -0.05719,0.03177 -0.199644,0.06666 -0.353984,0.06666 -0.15434,0 -0.29628,-0.03489 -0.353466,-0.06666 -0.05697,-0.03165 -0.043,-4.78e-4 -0.04289,-0.06563 v -5.16e-4 -0.131775 H 33.6026 v 0.132291 h 10e-4 c 2.21e-4,0.33052 0.210792,0.62767 0.451135,0.761194 0.2405,0.133595 0.495404,0.163814 0.737939,0.163814 0.242535,0 0.497986,-0.03022 0.738457,-0.163814 0.24047,-0.133594 0.4532,-0.430981 0.453202,-0.76171 -2e-6,-0.330729 -0.154162,-0.615117 -0.365353,-0.826307 -0.21108,-0.21108 -0.495282,-0.363125 -0.825789,-0.363285 h -5.17e-4 c -0.06621,-2.23e-4 -0.179358,-0.04707 -0.265617,-0.133325 -0.08647,-0.08647 -0.13074,-0.197403 -0.130741,-0.26355 1e-6,-0.06615 -0.0143,-0.03438 0.04289,-0.06615 0.05719,-0.03177 0.199643,-0.06666 0.353983,-0.06666 0.15434,0 0.296281,0.03489 0.353467,0.06666 0.05697,0.03165 0.043,4.79e-4 0.04289,0.06563 V 44.318225 44.45 h 0.79375 v -0.132292 h -0.001 c -2.21e-4,-0.33052 -0.210792,-0.62767 -0.451135,-0.761194 C 35.290699,43.422919 35.03576,43.3927 34.793225,43.3927 Z m -13.75885,0.792717 a 0.66145831,0.92604166 0 0 1 0.661458,0.926041 0.66145831,0.92604166 0 0 1 -0.661458,0.926042 0.66145831,0.92604166 0 0 1 -0.661458,-0.926042 0.66145831,0.92604166 0 0 1 0.661458,-0.926041 z m 28.575,0 a 0.66145831,0.92604166 0 0 1 0.661458,0.926041 0.66145831,0.92604166 0 0 1 -0.661458,0.926042 0.66145831,0.92604166 0 0 1 -0.661458,-0.926042 0.66145831,0.92604166 0 0 1 0.661458,-0.926041 z m 16.933333,0 a 0.66145831,0.92604166 0 0 1 0.661459,0.926041 0.66145831,0.92604166 0 0 1 -0.661459,0.926042 0.66145831,0.92604166 0 0 1 -0.661458,-0.926042 0.66145831,0.92604166 0 0 1 0.661458,-0.926041 z m -54.504166,0.612365 0.218591,0.710551 H 11.81995 Z m 19.84375,0 0.218591,0.710551 H 31.6637 Z" /></g><g
       id="g20"
       inkscape:label="Logo"
       style="fill:#ffffff"
       transform="translate(-6.6145832,-42.06875)"><path
         id="path19"
         style="fill:#3c0059;fill-opacity:1;stroke:#3c0059;stroke-width:0.529167;stroke-linecap:round;stroke-linejoin:round;stroke-dasharray:none;stroke-opacity:1;paint-order:stroke markers fill"
         inkscape:label="Shadow"
         d="m 8.4666663,43.920833 v 0.505912 2.933671 h 0.79375 v -1.610754 l 0.7937497,1.322916 0.1726,0.287838 h 0.62115 v -3.439583 h -0.79375 v 1.5875 L 9.2604163,44.185416 9.1017697,43.920833 Z m 2.9104167,0 v 0.529166 h 0.630969 l -0.895553,2.910417 h 0.829407 l 0.24443,-0.79375 h 0.762744 l 0.244429,0.79375 h 0.829407 l -1.058333,-3.439583 h -0.396875 -0.396875 z m 2.910416,0 v 3.439583 h 0.264584 0.529166 V 45.58068 l 0.529167,0.759643 0.529167,-0.759643 v 1.779736 h 0.529166 0.264584 v -3.439583 h -0.604098 l -0.718819,1.028361 -0.718819,-1.028361 z m 4.233334,0 a 1.3229166,1.7197917 0 0 0 -1.322917,1.719791 1.3229166,1.7197917 0 0 0 1.322917,1.719792 1.3229166,1.7197917 0 0 0 1.285193,-1.322917 h -0.80822 a 0.52916664,0.92604166 0 0 1 -0.476973,0.529167 0.52916664,0.92604166 0 0 1 -0.529167,-0.926042 0.52916664,0.92604166 0 0 1 0.529167,-0.926041 0.52916664,0.92604166 0 0 1 0.478523,0.529166 h 0.808737 a 1.3229166,1.7197917 0 0 0 -1.28726,-1.322916 z m 3.042708,0 a 1.4552083,1.7197917 0 0 0 -1.455208,1.719791 1.4552083,1.7197917 0 0 0 1.455208,1.719792 1.4552083,1.7197917 0 0 0 1.455208,-1.719792 1.4552083,1.7197917 0 0 0 -1.455208,-1.719791 z m 5.423958,0 a 1.3229166,1.7197917 0 0 0 -1.322916,1.719791 1.3229166,1.7197917 0 0 0 1.322916,1.719792 1.3229166,1.7197917 0 0 0 1.285193,-1.322917 h -0.808219 a 0.52916664,0.92604166 0 0 1 -0.476974,0.529167 0.52916664,0.92604166 0 0 1 -0.529166,-0.926042 0.52916664,0.92604166 0 0 1 0.529166,-0.926041 0.52916664,0.92604166 0 0 1 0.478524,0.529166 h 0.808736 a 1.3229166,1.7197917 0 0 0 -1.28726,-1.322916 z m 1.5875,0 v 3.439583 h 0.529167 0.264583 1.322917 v -0.79375 h -1.322917 v -2.645833 z m 2.645834,0 v 0.529166 h 0.630969 l -0.895553,2.910417 h 0.829407 l 0.24443,-0.79375 h 0.762744 l 0.244429,0.79375 h 0.829407 l -1.058333,-3.439583 h -0.396875 -0.396875 z m 8.202083,0 v 3.439583 h 0.79375 v -3.439583 z m 2.38125,0 a 1.3229166,1.7197917 0 0 0 -1.322917,1.719791 1.3229166,1.7197917 0 0 0 1.322917,1.719792 1.3229166,1.7197917 0 0 0 1.285193,-1.322917 h -0.80822 a 0.52916664,0.92604166 0 0 1 -0.476973,0.529167 0.52916664,0.92604166 0 0 1 -0.529167,-0.926042 0.52916664,0.92604166 0 0 1 0.529167,-0.926041 0.52916664,0.92604166 0 0 1 0.478524,0.529166 h 0.808736 a 1.3229166,1.7197917 0 0 0 -1.28726,-1.322916 z m 5.291667,0 a 1.3229166,1.7197917 0 0 0 -1.322917,1.719791 1.3229166,1.7197917 0 0 0 1.322917,1.719792 1.3229166,1.7197917 0 0 0 1.285193,-1.322917 h -0.80822 a 0.52916664,0.92604166 0 0 1 -0.476973,0.529167 0.52916664,0.92604166 0 0 1 -0.529167,-0.926042 0.52916664,0.92604166 0 0 1 0.529167,-0.926041 0.52916664,0.92604166 0 0 1 0.478523,0.529166 h 0.808737 a 1.3229166,1.7197917 0 0 0 -1.28726,-1.322916 z m 3.042708,0 a 1.4552083,1.7197917 0 0 0 -1.455208,1.719791 1.4552083,1.7197917 0 0 0 1.455208,1.719792 1.4552083,1.7197917 0 0 0 1.455208,-1.719792 1.4552083,1.7197917 0 0 0 -1.455208,-1.719791 z m 1.719792,0 v 3.439583 h 0.529166 0.264584 1.322916 v -0.79375 h -1.322916 v -2.645833 z m 2.38125,0 v 3.439583 h 0.529166 0.264584 1.322916 v -0.79375 h -1.322916 v -2.645833 z m 2.38125,0 v 1.322916 h -0.529167 v 0.529167 h 0.529167 v 1.5875 h 0.264583 0.529167 1.322916 v -0.529167 h -1.322916 v -1.058333 h 1.322916 v -0.529167 h -1.322916 v -0.79375 h 1.322916 v -0.529166 h -1.322916 -0.396875 z m 3.704166,0 a 1.3229166,1.7197917 0 0 0 -1.322916,1.719791 1.3229166,1.7197917 0 0 0 1.322916,1.719792 1.3229166,1.7197917 0 0 0 1.285193,-1.322917 h -0.808219 a 0.52916664,0.92604166 0 0 1 -0.476974,0.529167 0.52916664,0.92604166 0 0 1 -0.529166,-0.926042 0.52916664,0.92604166 0 0 1 0.529166,-0.926041 0.52916664,0.92604166 0 0 1 0.478524,0.529166 h 0.808736 a 1.3229166,1.7197917 0 0 0 -1.28726,-1.322916 z m 1.5875,0 v 0.79375 h 0.79375 v 2.645833 h 0.79375 v -2.645833 h 0.79375 v -0.79375 z m 2.645834,0 v 3.439583 h 0.79375 v -3.439583 z m 2.513541,0 a 1.4552083,1.7197917 0 0 0 -1.455208,1.719791 1.4552083,1.7197917 0 0 0 1.455208,1.719792 1.4552083,1.7197917 0 0 0 1.455209,-1.719792 1.4552083,1.7197917 0 0 0 -1.455209,-1.719791 z m 1.719792,0 v 0.505912 2.933671 h 0.79375 v -1.610754 l 0.79375,1.322916 0.172599,0.287838 h 0.621151 v -3.439583 h -0.79375 v 1.5875 l -0.79375,-1.322917 -0.158647,-0.264583 z m -30.823958,5.16e-4 c -0.242535,0 -0.497986,0.03022 -0.738457,0.163815 -0.24047,0.133594 -0.4532,0.430981 -0.453202,0.76171 2e-6,0.330729 0.154162,0.615116 0.365353,0.826306 0.21108,0.21108 0.495283,0.363126 0.825789,0.363286 h 5.17e-4 c 0.06621,2.23e-4 0.179359,0.04707 0.265617,0.133325 0.08647,0.08647 0.13074,0.197403 0.130741,0.26355 -1e-6,0.06615 0.0143,0.03438 -0.04289,0.06615 -0.05719,0.03177 -0.199643,0.06666 -0.353983,0.06666 -0.15434,0 -0.296281,-0.03489 -0.353467,-0.06666 -0.05697,-0.03165 -0.043,-4.78e-4 -0.04289,-0.06563 v -5.17e-4 -0.131775 h -0.79375 v 0.132292 h 0.001 c 2.21e-4,0.33052 0.210792,0.627669 0.451135,0.761193 0.2405,0.133595 0.495405,0.163815 0.73794,0.163815 0.242535,0 0.497985,-0.03022 0.738456,-0.163815 0.24047,-0.133594 0.4532,-0.430981 0.453202,-0.76171 -2e-6,-0.330729 -0.154161,-0.615116 -0.365352,-0.826306 -0.21108,-0.21108 -0.495282,-0.363126 -0.825789,-0.363286 h -5.17e-4 c -0.06621,-2.23e-4 -0.179358,-0.04707 -0.265617,-0.133325 -0.08647,-0.08647 -0.13074,-0.197403 -0.130741,-0.26355 1e-6,-0.06615 -0.0143,-0.03438 0.04289,-0.06615 0.05719,-0.03177 0.199644,-0.06666 0.353984,-0.06666 0.15434,0 0.29628,0.03489 0.353466,0.06666 0.05697,0.03165 0.043,4.8e-4 0.04289,0.06563 v 5.16e-4 0.131775 h 0.79375 v -0.132291 h -0.001 c -2.21e-4,-0.33052 -0.210792,-0.62767 -0.451135,-0.761194 -0.240466,-0.133595 -0.495404,-0.163815 -0.737939,-0.163815 z m -2.645317,5.17e-4 c -0.242535,0 -0.497985,0.03022 -0.738456,0.163814 -0.24047,0.133594 -0.4532,0.430982 -0.453202,0.761711 2e-6,0.330729 0.154161,0.615116 0.365352,0.826306 0.21108,0.21108 0.495283,0.363126 0.825789,0.363286 h 5.17e-4 c 0.06621,2.23e-4 0.179359,0.04707 0.265617,0.133325 0.08647,0.08647 0.13074,0.197403 0.130741,0.26355 -1e-6,0.06615 0.0143,0.03437 -0.04289,0.06614 -0.05719,0.03177 -0.199644,0.06666 -0.353984,0.06666 -0.15434,0 -0.29628,-0.03489 -0.353466,-0.06666 -0.05697,-0.03165 -0.043,-4.78e-4 -0.04289,-0.06563 v -5.16e-4 -0.131775 h -0.79375 v 0.132291 h 0.001 c 2.21e-4,0.33052 0.210792,0.62767 0.451135,0.761194 0.2405,0.133595 0.495404,0.163814 0.737939,0.163814 0.242535,0 0.497986,-0.03022 0.738457,-0.163814 0.24047,-0.133594 0.4532,-0.430981 0.453202,-0.76171 -2e-6,-0.330729 -0.154162,-0.615117 -0.365353,-0.826307 -0.21108,-0.21108 -0.495282,-0.363125 -0.825789,-0.363285 h -5.17e-4 c -0.06621,-2.23e-4 -0.179358,-0.04707 -0.265617,-0.133325 -0.08647,-0.08647 -0.13074,-0.197403 -0.130741,-0.26355 10e-7,-0.06615 -0.0143,-0.03438 0.04289,-0.06615 0.05719,-0.03177 0.199643,-0.06666 0.353983,-0.06666 0.15434,0 0.296281,0.03489 0.353467,0.06666 0.05697,0.03165 0.043,4.79e-4 0.04289,0.06563 v 5.17e-4 0.131775 h 0.79375 v -0.132292 h -10e-4 c -2.21e-4,-0.33052 -0.210792,-0.62767 -0.451135,-0.761194 -0.240466,-0.133595 -0.495405,-0.163814 -0.73794,-0.163814 z m -13.75885,0.792717 a 0.66145831,0.92604166 0 0 1 0.661458,0.926041 0.66145831,0.92604166 0 0 1 -0.661458,0.926042 0.66145831,0.92604166 0 0 1 -0.661458,-0.926042 0.66145831,0.92604166 0 0 1 0.661458,-0.926041 z m 28.575,0 a 0.66145831,0.92604166 0 0 1 0.661458,0.926041 0.66145831,0.92604166 0 0 1 -0.661458,0.926042 0.66145831,0.92604166 0 0 1 -0.661458,-0.926042 0.66145831,0.92604166 0 0 1 0.661458,-0.926041 z m 16.933333,0 a 0.66145831,0.92604166 0 0 1 0.661459,0.926041 0.66145831,0.92604166 0 0 1 -0.661459,0.926042 0.66145831,0.92604166 0 0 1 -0.661458,-0.926042 0.66145831,0.92604166 0 0 1 0.661458,-0.926041 z m -54.504166,0.612365 0.218591,0.710551 h -0.437183 z m 19.84375,0 0.218591,0.710551 h -0.437183 z" /><path
         id="path20"
         style="fill:#000000;fill-opacity:1;stroke:#0000ff;stroke-width:0.529167;stroke-linecap:round;stroke-linejoin:round;stroke-dasharray:none;stroke-opacity:1;paint-order:stroke markers fill"
         inkscape:label="Base"
         d="m 7.9375,43.391667 v 0.505912 2.933671 H 8.73125 V 45.220496 L 9.525,46.543412 9.6975993,46.83125 H 10.31875 V 43.391667 H 9.525 v 1.5875 L 8.73125,43.65625 8.5726034,43.391667 Z m 2.910417,0 v 0.529166 h 0.630969 l -0.895553,2.910417 h 0.829407 l 0.24443,-0.79375 h 0.762744 l 0.244429,0.79375 h 0.829407 l -1.058333,-3.439583 h -0.396875 -0.396875 z m 2.910416,0 v 3.439583 h 0.264584 0.529166 v -1.779736 l 0.529167,0.759643 0.529167,-0.759643 v 1.779736 h 0.529166 0.264584 v -3.439583 h -0.604098 l -0.718819,1.028361 -0.718819,-1.028361 z m 4.233334,0 a 1.3229166,1.7197917 0 0 0 -1.322917,1.719791 1.3229166,1.7197917 0 0 0 1.322917,1.719792 1.3229166,1.7197917 0 0 0 1.285193,-1.322917 H 18.46864 A 0.52916664,0.92604166 0 0 1 17.991667,46.0375 0.52916664,0.92604166 0 0 1 17.4625,45.111458 a 0.52916664,0.92604166 0 0 1 0.529167,-0.926041 0.52916664,0.92604166 0 0 1 0.478523,0.529166 h 0.808737 a 1.3229166,1.7197917 0 0 0 -1.28726,-1.322916 z m 3.042708,0 a 1.4552083,1.7197917 0 0 0 -1.455208,1.719791 1.4552083,1.7197917 0 0 0 1.455208,1.719792 1.4552083,1.7197917 0 0 0 1.455208,-1.719792 1.4552083,1.7197917 0 0 0 -1.455208,-1.719791 z m 5.423958,0 a 1.3229166,1.7197917 0 0 0 -1.322916,1.719791 1.3229166,1.7197917 0 0 0 1.322916,1.719792 1.3229166,1.7197917 0 0 0 1.285193,-1.322917 h -0.808219 a 0.52916664,0.92604166 0 0 1 -0.476974,0.529167 0.52916664,0.92604166 0 0 1 -0.529166,-0.926042 0.52916664,0.92604166 0 0 1 0.529166,-0.926041 0.52916664,0.92604166 0 0 1 0.478524,0.529166 h 0.808736 a 1.3229166,1.7197917 0 0 0 -1.28726,-1.322916 z m 1.5875,0 V 46.83125 H 28.575 28.839583 30.1625 V 46.0375 h -1.322917 v -2.645833 z m 2.645834,0 v 0.529166 h 0.630969 l -0.895553,2.910417 h 0.829407 l 0.24443,-0.79375 h 0.762744 l 0.244429,0.79375 H 33.3375 l -1.058333,-3.439583 h -0.396875 -0.396875 z m 8.202083,0 v 3.439583 h 0.79375 v -3.439583 z m 2.38125,0 a 1.3229166,1.7197917 0 0 0 -1.322917,1.719791 1.3229166,1.7197917 0 0 0 1.322917,1.719792 1.3229166,1.7197917 0 0 0 1.285193,-1.322917 h -0.80822 A 0.52916664,0.92604166 0 0 1 41.275,46.0375 0.52916664,0.92604166 0 0 1 40.745833,45.111458 0.52916664,0.92604166 0 0 1 41.275,44.185417 0.52916664,0.92604166 0 0 1 41.753524,44.714583 H 42.56226 A 1.3229166,1.7197917 0 0 0 41.275,43.391667 Z m 5.291667,0 a 1.3229166,1.7197917 0 0 0 -1.322917,1.719791 1.3229166,1.7197917 0 0 0 1.322917,1.719792 1.3229166,1.7197917 0 0 0 1.285193,-1.322917 H 47.04364 A 0.52916664,0.92604166 0 0 1 46.566667,46.0375 0.52916664,0.92604166 0 0 1 46.0375,45.111458 a 0.52916664,0.92604166 0 0 1 0.529167,-0.926041 0.52916664,0.92604166 0 0 1 0.478523,0.529166 h 0.808737 a 1.3229166,1.7197917 0 0 0 -1.28726,-1.322916 z m 3.042708,0 a 1.4552083,1.7197917 0 0 0 -1.455208,1.719791 1.4552083,1.7197917 0 0 0 1.455208,1.719792 1.4552083,1.7197917 0 0 0 1.455208,-1.719792 1.4552083,1.7197917 0 0 0 -1.455208,-1.719791 z m 1.719792,0 v 3.439583 h 0.529166 0.264584 1.322916 V 46.0375 h -1.322916 v -2.645833 z m 2.38125,0 v 3.439583 h 0.529166 0.264584 1.322916 V 46.0375 h -1.322916 v -2.645833 z m 2.38125,0 v 1.322916 H 55.5625 v 0.529167 h 0.529167 v 1.5875 h 0.264583 0.529167 1.322916 V 46.302083 H 56.885417 V 45.24375 h 1.322916 v -0.529167 h -1.322916 v -0.79375 h 1.322916 v -0.529166 h -1.322916 -0.396875 z m 3.704166,0 a 1.3229166,1.7197917 0 0 0 -1.322916,1.719791 1.3229166,1.7197917 0 0 0 1.322916,1.719792 1.3229166,1.7197917 0 0 0 1.285193,-1.322917 h -0.808219 a 0.52916664,0.92604166 0 0 1 -0.476974,0.529167 0.52916664,0.92604166 0 0 1 -0.529166,-0.926042 0.52916664,0.92604166 0 0 1 0.529166,-0.926041 0.52916664,0.92604166 0 0 1 0.478524,0.529166 h 0.808736 a 1.3229166,1.7197917 0 0 0 -1.28726,-1.322916 z m 1.5875,0 v 0.79375 h 0.79375 v 2.645833 h 0.79375 v -2.645833 h 0.79375 v -0.79375 z m 2.645834,0 v 3.439583 h 0.79375 v -3.439583 z m 2.513541,0 a 1.4552083,1.7197917 0 0 0 -1.455208,1.719791 1.4552083,1.7197917 0 0 0 1.455208,1.719792 1.4552083,1.7197917 0 0 0 1.455209,-1.719792 1.4552083,1.7197917 0 0 0 -1.455209,-1.719791 z m 1.719792,0 v 0.505912 2.933671 h 0.79375 V 45.220496 L 69.85,46.543412 70.022599,46.83125 H 70.64375 V 43.391667 H 69.85 v 1.5875 L 69.05625,43.65625 68.897603,43.391667 Z m -30.823958,5.16e-4 c -0.242535,0 -0.497986,0.03022 -0.738457,0.163815 -0.24047,0.133594 -0.4532,0.430981 -0.453202,0.76171 2e-6,0.330729 0.154162,0.615116 0.365353,0.826306 0.21108,0.21108 0.495283,0.363126 0.825789,0.363286 h 5.17e-4 c 0.06621,2.23e-4 0.179359,0.04707 0.265617,0.133325 0.08647,0.08647 0.13074,0.197403 0.130741,0.26355 -10e-7,0.06615 0.0143,0.03438 -0.04289,0.06615 -0.05719,0.03177 -0.199643,0.06666 -0.353983,0.06666 -0.15434,0 -0.296281,-0.03489 -0.353467,-0.06666 -0.05697,-0.03165 -0.043,-4.78e-4 -0.04289,-0.06563 v -5.2e-4 -0.131775 h -0.79375 v 0.132292 h 10e-4 c 2.21e-4,0.33052 0.210792,0.627669 0.451135,0.761193 0.2405,0.133595 0.495405,0.163815 0.73794,0.163815 0.242535,0 0.497985,-0.03022 0.738456,-0.163815 0.24047,-0.133594 0.4532,-0.430981 0.453202,-0.76171 -2e-6,-0.330729 -0.154161,-0.615116 -0.365352,-0.826306 -0.21108,-0.21108 -0.495282,-0.363126 -0.825789,-0.363286 h -5.17e-4 c -0.06621,-2.23e-4 -0.179358,-0.04707 -0.265617,-0.133325 -0.08647,-0.08647 -0.13074,-0.197403 -0.130741,-0.26355 10e-7,-0.06615 -0.0143,-0.03438 0.04289,-0.06615 0.05719,-0.03177 0.199644,-0.06666 0.353984,-0.06666 0.15434,0 0.29628,0.03489 0.353466,0.06666 0.05697,0.03165 0.043,4.8e-4 0.04289,0.06563 v 5.16e-4 0.131775 h 0.79375 v -0.132291 h -10e-4 c -2.21e-4,-0.33052 -0.210792,-0.62767 -0.451135,-0.761194 -0.240466,-0.133595 -0.495404,-0.163815 -0.737939,-0.163815 z m -2.645317,5.17e-4 c -0.242535,0 -0.497985,0.03022 -0.738456,0.163814 -0.24047,0.133594 -0.4532,0.430982 -0.453202,0.761711 2e-6,0.330729 0.154161,0.615116 0.365352,0.826306 0.21108,0.21108 0.495283,0.363126 0.825789,0.363286 h 5.17e-4 c 0.06621,2.23e-4 0.179359,0.04707 0.265617,0.133325 0.08647,0.08647 0.13074,0.197403 0.130741,0.26355 -10e-7,0.06615 0.0143,0.03438 -0.04289,0.06615 -0.05719,0.03177 -0.199644,0.06666 -0.353984,0.06666 -0.15434,0 -0.29628,-0.03489 -0.353466,-0.06666 -0.05697,-0.03165 -0.043,-4.78e-4 -0.04289,-0.06563 v -5.16e-4 -0.131775 H 33.6026 v 0.132291 h 10e-4 c 2.21e-4,0.33052 0.210792,0.62767 0.451135,0.761194 0.2405,0.133595 0.495404,0.163814 0.737939,0.163814 0.242535,0 0.497986,-0.03022 0.738457,-0.163814 0.24047,-0.133594 0.4532,-0.430981 0.453202,-0.76171 -2e-6,-0.330729 -0.154162,-0.615117 -0.365353,-0.826307 -0.21108,-0.21108 -0.495282,-0.363125 -0.825789,-0.363285 h -5.17e-4 c -0.06621,-2.23e-4 -0.179358,-0.04707 -0.265617,-0.133325 -0.08647,-0.08647 -0.13074,-0.197403 -0.130741,-0.26355 1e-6,-0.06615 -0.0143,-0.03438 0.04289,-0.06615 0.05719,-0.03177 0.199643,-0.06666 0.353983,-0.06666 0.15434,0 0.296281,0.03489 0.353467,0.06666 0.05697,0.03165 0.043,4.79e-4 0.04289,0.06563 V 44.318225 44.45 h 0.79375 v -0.132292 h -0.001 c -2.21e-4,-0.33052 -0.210792,-0.62767 -0.451135,-0.761194 C 35.290699,43.422919 35.03576,43.3927 34.793225,43.3927 Z m -13.75885,0.792717 a 0.66145831,0.92604166 0 0 1 0.661458,0.926041 0.66145831,0.92604166 0 0 1 -0.661458,0.926042 0.66145831,0.92604166 0 0 1 -0.661458,-0.926042 0.66145831,0.92604166 0 0 1 0.661458,-0.926041 z m 28.575,0 a 0.66145831,0.92604166 0 0 1 0.661458,0.926041 0.66145831,0.92604166 0 0 1 -0.661458,0.926042 0.66145831,0.92604166 0 0 1 -0.661458,-0.926042 0.66145831,0.92604166 0 0 1 0.661458,-0.926041 z m 16.933333,0 a 0.66145831,0.92604166 0 0 1 0.661459,0.926041 0.66145831,0.92604166 0 0 1 -0.661459,0.926042 0.66145831,0.92604166 0 0 1 -0.661458,-0.926042 0.66145831,0.92604166 0 0 1 0.661458,-0.926041 z m -54.504166,0.612365 0.218591,0.710551 H 11.81995 Z m 19.84375,0 0.218591,0.710551 H 31.6637 Z" /></g></g></svg>
